<svg id="svg" version="1.1" xmlns="http://www.w3.org/2000/svg" xmlns:xlink="http://www.w3.org/1999/xlink" width="400" height="403.7037037037037" viewBox="0, 0, 400,403.7037037037037"><g id="svgg"><path id="path0" d="M186.548 36.570 C 185.639 36.855,183.434 37.315,181.648 37.593 C 179.862 37.870,178.400 38.242,178.400 38.418 C 178.400 38.594,177.726 38.961,176.901 39.233 C 174.958 39.874,171.896 41.471,169.479 43.103 C 168.423 43.817,167.073 44.658,166.479 44.972 C 165.023 45.744,163.460 47.395,160.677 51.104 C 160.059 51.927,158.754 53.657,157.777 54.948 C 156.800 56.240,156.000 57.520,156.000 57.794 C 156.000 58.068,155.640 58.750,155.200 59.309 C 154.760 59.869,154.400 60.589,154.400 60.909 C 154.400 61.723,152.857 63.600,152.189 63.600 C 150.247 63.600,146.158 67.815,144.816 71.200 C 144.510 71.970,143.958 73.050,143.588 73.600 C 142.620 75.041,141.225 79.748,140.803 83.000 C 140.604 84.540,140.143 87.060,139.781 88.600 C 139.089 91.539,139.255 102.241,140.024 104.264 C 140.211 104.756,140.567 107.913,140.815 111.279 C 141.063 114.646,141.521 118.126,141.833 119.013 C 142.927 122.128,142.605 124.816,140.900 126.807 L 139.400 128.558 139.275 134.979 C 139.153 141.292,139.293 142.535,140.786 148.383 C 141.269 150.274,141.604 151.089,144.022 156.251 C 145.624 159.669,148.231 162.400,149.892 162.400 C 151.093 162.400,151.492 163.110,152.191 166.496 C 152.539 168.181,153.071 170.154,153.373 170.880 C 153.675 171.606,154.051 173.280,154.209 174.600 C 154.367 175.920,154.727 177.270,155.011 177.600 C 155.294 177.930,155.735 179.010,155.991 180.000 C 156.248 180.990,156.824 182.610,157.272 183.600 C 158.892 187.181,160.872 191.421,161.382 192.400 C 162.403 194.364,162.488 197.613,161.619 201.516 C 161.168 203.537,160.800 205.813,160.800 206.572 C 160.800 207.332,160.630 208.058,160.423 208.186 C 159.050 209.034,159.498 212.049,161.251 213.759 C 162.213 214.698,163.938 216.441,165.083 217.633 C 166.229 218.825,167.931 220.250,168.865 220.800 C 169.798 221.350,171.561 222.703,172.781 223.807 C 174.001 224.911,175.720 226.351,176.600 227.007 C 177.480 227.663,178.438 228.425,178.729 228.700 C 179.019 228.975,179.390 229.200,179.553 229.200 C 179.716 229.200,180.198 229.520,180.625 229.912 C 181.051 230.303,182.300 231.248,183.400 232.012 C 184.500 232.775,185.455 233.520,185.523 233.668 C 185.590 233.815,186.805 234.691,188.223 235.615 C 189.640 236.538,190.800 237.436,190.800 237.609 C 190.800 237.782,191.751 238.460,192.913 239.116 C 196.497 241.139,196.832 243.139,193.844 244.678 C 192.543 245.348,190.801 247.125,190.800 247.783 C 190.800 247.994,190.184 248.804,189.432 249.583 C 185.757 253.389,185.671 254.737,188.869 258.431 C 189.931 259.658,190.800 260.892,190.800 261.173 C 190.800 261.455,191.610 263.125,192.600 264.885 C 194.941 269.048,194.919 269.746,192.361 272.691 C 191.744 273.402,191.120 274.662,190.975 275.491 C 190.829 276.321,190.500 277.360,190.244 277.800 C 189.529 279.025,188.145 282.770,187.581 285.000 C 187.303 286.100,186.922 287.200,186.734 287.445 C 186.546 287.690,186.040 289.542,185.608 291.560 C 185.177 293.579,184.549 295.623,184.212 296.104 C 183.875 296.585,183.600 297.741,183.600 298.674 C 183.600 299.607,183.240 301.284,182.800 302.400 C 182.360 303.516,181.992 305.278,181.983 306.315 C 181.973 307.352,181.811 308.920,181.622 309.800 C 180.756 313.839,180.401 316.151,179.932 320.800 C 179.423 325.854,177.962 328.922,176.677 327.637 C 176.058 327.018,174.357 321.901,173.806 319.000 C 173.513 317.460,173.005 315.570,172.676 314.800 C 172.347 314.030,171.950 312.365,171.793 311.100 C 171.636 309.835,171.373 308.800,171.209 308.800 C 171.044 308.800,170.601 307.765,170.224 306.500 C 169.847 305.235,169.375 303.840,169.175 303.400 C 168.828 302.638,168.471 301.405,166.745 295.000 C 166.330 293.460,165.741 291.660,165.436 291.000 C 165.131 290.340,164.756 288.810,164.603 287.600 C 164.449 286.390,164.055 284.977,163.726 284.459 C 163.397 283.942,162.965 282.368,162.766 280.961 C 162.567 279.555,162.043 277.731,161.602 276.908 C 161.161 276.085,160.796 275.049,160.791 274.606 C 160.786 274.163,160.426 273.015,159.991 272.056 C 159.556 271.097,159.200 269.783,159.200 269.136 C 159.200 268.488,158.853 267.293,158.430 266.479 C 157.639 264.961,156.005 259.264,155.138 255.000 C 154.869 253.680,154.504 252.500,154.325 252.377 C 154.147 252.254,153.804 251.088,153.563 249.785 C 153.323 248.482,152.877 246.935,152.572 246.346 C 152.268 245.758,151.820 243.991,151.576 242.419 C 151.332 240.847,150.879 239.075,150.569 238.481 C 150.253 237.876,150.004 236.255,150.003 234.800 C 150.000 230.187,149.090 219.416,148.657 218.861 C 148.098 218.143,146.253 218.468,143.505 219.768 C 142.305 220.336,141.132 220.800,140.898 220.800 C 140.487 220.800,137.761 222.049,134.721 223.631 C 133.907 224.054,132.962 224.400,132.621 224.400 C 132.280 224.400,131.145 224.839,130.100 225.375 C 129.055 225.911,127.390 226.701,126.400 227.130 C 125.410 227.559,123.592 228.380,122.360 228.955 C 121.128 229.530,119.833 230.000,119.481 230.000 C 119.130 230.000,117.996 230.450,116.962 231.000 C 115.927 231.550,114.828 232.000,114.520 232.000 C 114.211 232.000,113.293 232.357,112.479 232.794 C 110.464 233.875,106.605 235.597,106.161 235.613 C 105.963 235.619,104.900 236.068,103.800 236.609 C 102.700 237.150,101.579 237.594,101.310 237.596 C 101.040 237.598,100.230 237.959,99.510 238.399 C 98.789 238.838,97.970 239.198,97.689 239.199 C 96.748 239.201,83.600 245.509,83.600 245.957 C 83.600 246.119,83.015 246.533,82.300 246.876 C 81.585 247.219,79.868 248.512,78.485 249.750 C 77.102 250.987,75.702 252.000,75.375 252.000 C 75.048 252.000,74.611 252.444,74.405 252.987 C 74.199 253.529,73.594 254.474,73.060 255.087 C 72.527 255.699,71.149 257.280,69.998 258.600 C 68.163 260.705,66.788 262.546,65.400 264.757 C 65.180 265.107,64.595 265.904,64.100 266.528 C 63.605 267.151,63.200 267.929,63.200 268.256 C 63.200 268.584,62.750 269.835,62.200 271.037 C 61.650 272.240,61.200 273.448,61.200 273.723 C 61.200 273.997,60.952 274.577,60.650 275.011 C 60.347 275.445,59.876 276.880,59.602 278.200 C 59.329 279.520,58.864 281.153,58.568 281.828 C 58.272 282.504,57.859 284.304,57.649 285.828 C 57.439 287.353,57.000 289.410,56.675 290.400 C 56.349 291.390,55.892 293.280,55.660 294.600 C 54.333 302.138,53.857 304.643,52.963 308.800 C 52.419 311.330,51.789 314.120,51.562 315.000 C 48.069 328.549,48.198 333.318,52.164 337.284 C 52.954 338.074,53.600 338.967,53.600 339.269 C 53.600 339.571,54.230 340.157,55.000 340.572 C 55.770 340.987,56.400 341.458,56.400 341.620 C 56.400 341.781,56.845 342.025,57.389 342.161 C 57.933 342.298,58.698 342.744,59.089 343.152 C 59.480 343.560,60.472 344.111,61.294 344.376 C 62.116 344.641,62.897 345.033,63.028 345.246 C 63.312 345.705,68.072 348.000,68.740 348.000 C 68.995 348.000,69.875 348.360,70.696 348.800 C 71.516 349.240,72.515 349.600,72.914 349.600 C 73.313 349.600,74.126 349.843,74.720 350.140 C 75.314 350.437,76.970 350.919,78.400 351.211 C 79.830 351.504,81.720 352.056,82.600 352.438 C 83.480 352.819,85.280 353.256,86.600 353.408 C 87.920 353.560,89.398 353.935,89.885 354.242 C 90.372 354.548,91.932 354.964,93.351 355.165 C 94.770 355.366,96.532 355.798,97.266 356.126 C 98.000 356.454,100.576 356.942,102.992 357.211 C 105.407 357.481,107.747 357.857,108.192 358.048 C 108.636 358.238,112.420 358.763,116.600 359.213 C 120.780 359.664,126.270 360.286,128.800 360.597 C 131.330 360.907,134.660 361.172,136.200 361.185 C 137.740 361.198,139.900 361.490,141.000 361.834 C 142.403 362.273,145.865 362.563,152.600 362.807 C 158.696 363.027,162.711 363.345,163.600 363.677 C 165.577 364.415,230.168 364.439,235.200 363.703 C 237.070 363.430,242.650 363.024,247.600 362.802 C 252.674 362.574,257.647 362.143,259.000 361.813 C 260.320 361.492,262.570 361.212,264.000 361.191 C 265.430 361.170,268.670 360.904,271.200 360.600 C 273.730 360.295,279.130 359.683,283.200 359.239 C 287.270 358.796,291.148 358.247,291.817 358.021 C 292.486 357.794,294.916 357.420,297.217 357.190 C 299.518 356.959,302.010 356.487,302.755 356.141 C 303.499 355.794,305.479 355.331,307.155 355.110 C 308.830 354.890,310.380 354.566,310.600 354.390 C 310.955 354.105,312.440 353.684,319.200 351.948 C 323.207 350.919,329.048 349.036,329.789 348.534 C 330.223 348.240,330.853 348.000,331.189 348.000 C 331.926 347.999,336.758 345.752,337.600 345.018 C 337.930 344.730,338.650 344.357,339.200 344.190 C 339.750 344.022,340.757 343.461,341.438 342.942 C 342.119 342.424,342.884 342.000,343.138 342.000 C 343.392 342.000,343.600 341.848,343.600 341.663 C 343.600 341.478,344.231 340.986,345.002 340.571 C 345.774 340.155,346.493 339.542,346.601 339.208 C 346.710 338.874,347.396 337.950,348.127 337.156 C 348.858 336.362,349.684 335.102,349.962 334.356 C 350.239 333.610,350.632 332.687,350.833 332.305 C 351.305 331.412,351.310 326.602,350.840 325.695 C 350.642 325.313,350.267 323.585,350.006 321.855 C 349.746 320.125,349.276 317.982,348.962 317.093 C 348.648 316.203,348.231 314.559,348.034 313.438 C 347.837 312.317,347.309 309.600,346.860 307.400 C 345.569 301.065,344.831 297.244,344.236 293.800 C 343.931 292.040,343.394 289.931,343.041 289.113 C 342.688 288.295,342.400 287.118,342.400 286.497 C 342.400 285.876,342.113 284.295,341.761 282.984 C 341.410 281.673,340.875 279.455,340.573 278.055 C 340.270 276.655,339.861 275.305,339.664 275.055 C 339.466 274.805,339.079 273.880,338.804 273.000 C 338.528 272.120,337.965 270.839,337.551 270.153 C 337.138 269.467,336.800 268.640,336.800 268.316 C 336.800 267.991,335.900 266.444,334.800 264.878 C 333.700 263.311,332.800 261.843,332.800 261.615 C 332.800 261.387,332.659 261.200,332.486 261.200 C 332.314 261.200,331.878 260.705,331.519 260.100 C 331.159 259.495,329.680 257.746,328.232 256.213 C 326.785 254.681,325.600 253.217,325.600 252.962 C 325.600 252.706,325.098 252.289,324.485 252.035 C 323.872 251.781,323.034 251.126,322.624 250.580 C 321.959 249.694,318.375 247.031,316.800 246.251 C 316.470 246.088,315.300 245.433,314.200 244.795 C 313.100 244.157,311.570 243.348,310.800 242.997 C 306.005 240.808,304.800 240.198,304.800 239.958 C 304.800 239.810,304.125 239.566,303.300 239.415 C 302.475 239.265,301.255 238.824,300.588 238.436 C 299.922 238.048,298.844 237.597,298.194 237.434 C 297.544 237.271,296.110 236.729,295.006 236.229 C 293.903 235.730,292.505 235.200,291.900 235.053 C 291.295 234.905,290.800 234.608,290.800 234.392 C 290.800 234.177,290.501 234.000,290.135 234.000 C 289.769 234.000,288.734 233.573,287.835 233.051 C 286.936 232.529,285.750 231.964,285.200 231.796 C 284.650 231.628,283.771 231.155,283.246 230.745 C 282.721 230.335,281.821 229.998,281.246 229.996 C 280.671 229.994,279.300 229.550,278.200 229.009 C 277.100 228.468,275.966 228.019,275.679 228.013 C 275.393 228.006,274.493 227.647,273.679 227.215 C 272.866 226.784,271.738 226.339,271.174 226.226 C 270.609 226.114,269.727 225.657,269.213 225.211 C 268.698 224.765,267.936 224.400,267.518 224.400 C 267.100 224.400,266.093 224.048,265.279 223.618 C 262.478 222.137,258.536 220.400,257.968 220.398 C 257.656 220.396,256.922 220.146,256.339 219.841 C 251.156 217.137,251.038 217.306,250.441 228.256 C 250.147 233.641,249.734 237.861,249.430 238.591 C 249.146 239.270,248.784 240.899,248.624 242.212 C 248.465 243.526,248.000 245.320,247.591 246.200 C 247.182 247.080,246.736 248.653,246.600 249.695 C 246.464 250.738,246.093 251.850,245.776 252.167 C 245.459 252.484,245.198 253.161,245.195 253.671 C 245.193 254.182,244.906 255.590,244.559 256.800 C 244.212 258.010,243.533 260.530,243.050 262.400 C 242.568 264.270,241.954 266.193,241.687 266.674 C 241.419 267.154,241.196 267.964,241.191 268.474 C 241.186 268.983,240.834 270.167,240.408 271.106 C 239.983 272.044,239.512 273.484,239.363 274.306 C 239.214 275.127,238.773 276.434,238.384 277.209 C 237.995 277.985,237.543 279.505,237.381 280.588 C 237.219 281.671,236.771 283.287,236.387 284.178 C 236.003 285.070,235.561 286.698,235.406 287.795 C 235.250 288.892,234.885 290.248,234.596 290.809 C 234.306 291.369,233.942 292.541,233.787 293.414 C 233.632 294.286,233.269 295.540,232.980 296.200 C 232.691 296.860,232.255 298.411,232.010 299.647 C 231.765 300.883,231.309 302.233,230.995 302.647 C 230.682 303.061,230.418 303.850,230.409 304.400 C 230.400 304.950,229.973 306.300,229.461 307.400 C 228.949 308.500,228.399 310.388,228.238 311.595 C 228.078 312.803,227.686 314.340,227.367 315.012 C 227.049 315.684,226.539 317.576,226.235 319.217 C 225.322 324.140,223.939 327.600,222.883 327.600 C 220.803 327.600,220.759 327.442,219.632 316.137 C 219.432 314.122,219.095 312.142,218.884 311.737 C 218.674 311.331,218.374 309.322,218.218 307.272 C 218.047 305.018,217.635 302.882,217.177 301.872 C 216.759 300.952,216.414 299.508,216.409 298.662 C 216.404 297.816,216.143 296.646,215.828 296.062 C 215.514 295.478,214.896 293.560,214.455 291.800 C 212.875 285.490,212.000 282.492,211.407 281.355 C 211.076 280.720,210.804 279.861,210.802 279.447 C 210.801 279.033,210.459 278.133,210.043 277.447 C 209.627 276.761,209.168 275.638,209.022 274.950 C 208.877 274.263,208.301 273.273,207.741 272.750 C 205.564 270.717,205.066 268.506,206.400 266.800 C 206.830 266.250,207.186 265.610,207.191 265.378 C 207.196 265.145,207.650 264.345,208.200 263.600 C 208.750 262.855,209.200 261.838,209.200 261.341 C 209.200 260.790,209.983 259.655,211.209 258.429 C 214.420 255.218,214.383 253.435,211.029 249.800 C 210.217 248.920,209.337 247.750,209.073 247.200 C 208.810 246.650,207.765 245.667,206.752 245.015 C 203.396 242.854,203.467 241.221,207.005 239.197 C 208.212 238.506,209.200 237.770,209.200 237.561 C 209.200 237.351,209.617 237.022,210.126 236.828 C 210.868 236.546,213.968 234.275,216.610 232.077 C 216.836 231.889,217.556 231.394,218.210 230.976 C 218.865 230.558,220.300 229.533,221.400 228.698 C 222.500 227.863,223.892 226.807,224.492 226.351 C 225.093 225.895,226.510 224.640,227.641 223.561 C 228.772 222.483,229.939 221.600,230.234 221.600 C 230.530 221.600,230.965 221.240,231.200 220.800 C 231.435 220.360,231.854 220.000,232.131 220.000 C 232.407 220.000,233.295 219.280,234.104 218.400 C 234.913 217.520,235.684 216.800,235.816 216.800 C 236.123 216.800,237.200 215.732,237.200 215.428 C 237.200 215.301,237.920 214.547,238.800 213.752 C 240.591 212.134,240.815 210.967,239.800 208.538 C 239.470 207.749,239.200 206.522,239.200 205.812 C 239.200 205.102,238.859 202.894,238.443 200.906 C 237.607 196.911,237.778 194.657,239.134 191.800 C 239.551 190.920,240.457 189.012,241.146 187.559 C 241.836 186.107,242.400 184.705,242.400 184.444 C 242.400 184.182,242.745 183.292,243.167 182.465 C 243.588 181.639,244.057 180.303,244.208 179.496 C 244.360 178.689,244.723 177.829,245.017 177.586 C 245.310 177.343,245.668 176.122,245.814 174.872 C 246.066 172.708,247.380 167.736,248.656 164.124 C 249.163 162.687,249.516 162.346,251.124 161.733 C 253.599 160.789,257.600 155.353,257.600 152.934 C 257.600 152.652,257.947 151.652,258.371 150.711 C 260.415 146.178,260.854 143.672,260.894 136.319 L 260.932 129.298 259.266 126.804 C 257.395 124.002,257.080 121.766,258.241 119.521 C 258.700 118.634,258.976 116.426,259.213 111.766 C 259.396 108.179,259.758 104.853,260.019 104.365 C 260.974 102.580,260.988 90.681,260.041 86.419 C 259.578 84.339,259.200 82.274,259.200 81.830 C 259.200 80.568,257.643 75.590,256.626 73.600 C 256.119 72.610,255.582 71.280,255.431 70.645 C 255.281 70.010,254.761 68.930,254.278 68.245 C 253.395 66.996,252.968 66.344,251.689 64.299 C 251.310 63.693,250.690 63.098,250.310 62.975 C 249.931 62.853,249.219 62.178,248.728 61.476 C 246.591 58.420,244.716 56.519,240.400 53.030 C 237.870 50.985,235.237 49.023,234.548 48.671 C 233.860 48.318,233.191 47.753,233.061 47.415 C 232.931 47.077,232.546 46.800,232.205 46.800 C 231.864 46.800,230.573 46.260,229.336 45.600 C 228.099 44.940,226.865 44.400,226.593 44.400 C 226.321 44.400,225.889 44.148,225.633 43.839 C 225.377 43.531,224.694 43.160,224.115 43.014 C 223.537 42.869,222.620 42.402,222.078 41.975 C 221.536 41.549,220.676 41.200,220.167 41.200 C 219.659 41.200,218.396 40.750,217.362 40.200 C 216.327 39.650,215.103 39.196,214.640 39.191 C 214.178 39.186,213.080 38.855,212.200 38.455 C 211.320 38.056,209.206 37.602,207.504 37.448 C 205.801 37.294,203.664 36.905,202.754 36.584 C 200.594 35.822,188.971 35.812,186.548 36.570 " stroke="none" fill="#060616" fill-rule="evenodd"></path><path id="path1" d="M0.000 201.800 L 0.000 403.600 200.000 403.600 L 400.000 403.600 400.000 201.800 L 400.000 0.000 200.000 0.000 L 0.000 0.000 0.000 201.800 M203.967 34.842 C 205.415 35.085,206.963 35.512,207.406 35.790 C 207.849 36.067,209.379 36.376,210.806 36.474 C 212.282 36.577,214.210 37.030,215.278 37.527 C 216.311 38.007,217.352 38.400,217.591 38.400 C 217.830 38.400,218.695 38.699,219.513 39.065 C 221.907 40.135,223.755 40.788,224.409 40.794 C 224.744 40.797,225.917 41.385,227.016 42.100 C 228.115 42.815,229.641 43.724,230.407 44.120 C 233.659 45.801,234.240 46.137,235.000 46.775 C 235.440 47.145,236.250 47.641,236.800 47.878 C 237.350 48.115,238.880 49.247,240.200 50.393 C 241.520 51.540,243.368 53.135,244.306 53.939 C 248.257 57.321,254.400 64.225,254.400 65.282 C 254.400 65.486,254.805 66.226,255.301 66.927 C 256.702 68.906,257.167 69.690,257.838 71.200 C 258.181 71.970,258.807 73.332,259.230 74.226 C 259.654 75.121,260.000 76.128,260.000 76.465 C 260.000 76.802,260.256 77.600,260.569 78.239 C 262.425 82.024,262.539 106.341,260.746 115.743 C 259.750 120.965,259.643 122.961,260.295 124.200 C 262.861 129.079,262.883 129.159,263.083 134.161 C 263.189 136.823,263.090 139.990,262.862 141.200 C 261.883 146.418,261.203 149.276,260.653 150.496 C 260.329 151.213,259.938 152.250,259.784 152.800 C 258.466 157.513,254.529 162.989,252.136 163.438 C 251.011 163.649,250.781 163.893,250.551 165.120 C 250.403 165.909,249.968 167.105,249.584 167.777 C 249.200 168.450,248.761 169.884,248.608 170.966 C 248.456 172.047,247.987 173.574,247.566 174.360 C 247.145 175.145,246.800 176.187,246.800 176.675 C 246.800 177.163,246.598 178.066,246.350 178.681 C 245.395 181.057,245.259 181.457,244.782 183.310 C 244.512 184.361,244.140 185.313,243.957 185.426 C 243.774 185.540,243.259 186.860,242.812 188.361 C 242.365 189.862,241.523 191.790,240.942 192.645 C 239.782 194.352,239.411 198.596,240.283 200.200 C 240.522 200.640,240.932 202.440,241.194 204.200 C 241.456 205.960,241.925 208.276,242.235 209.346 C 243.027 212.076,242.968 212.422,241.440 214.000 C 239.624 215.875,235.026 220.041,232.800 221.829 C 231.810 222.623,229.920 224.300,228.600 225.555 C 227.280 226.810,225.144 228.548,223.853 229.418 C 222.563 230.288,221.007 231.360,220.397 231.800 C 219.786 232.240,218.012 233.476,216.454 234.546 C 214.896 235.616,213.415 236.741,213.162 237.046 C 212.909 237.351,212.499 237.602,212.251 237.604 C 212.003 237.606,210.900 238.411,209.800 239.393 C 208.700 240.375,207.586 241.183,207.324 241.189 C 206.267 241.213,206.508 241.971,208.113 243.673 C 214.562 250.514,215.323 251.670,215.364 254.687 C 215.391 256.607,215.238 257.381,214.764 257.731 C 213.522 258.647,210.031 263.139,209.778 264.145 C 209.637 264.707,209.270 265.376,208.964 265.630 C 207.827 266.574,207.483 269.111,208.330 270.312 C 208.752 270.910,209.446 272.120,209.873 273.000 C 210.299 273.880,210.854 274.960,211.105 275.400 C 212.329 277.545,214.861 284.666,215.376 287.410 C 215.537 288.269,215.928 289.475,216.246 290.089 C 216.563 290.703,217.007 292.673,217.232 294.467 C 217.457 296.261,217.828 298.079,218.056 298.505 C 218.284 298.932,218.723 300.954,219.030 302.999 C 219.337 305.044,219.775 307.207,220.002 307.805 C 220.230 308.404,220.587 310.537,220.796 312.547 C 221.141 315.850,222.521 322.254,222.990 322.723 C 223.203 322.936,224.001 320.997,223.998 320.274 C 223.997 320.013,224.259 318.990,224.581 318.000 C 226.010 313.604,227.140 309.684,227.377 308.306 C 227.519 307.484,227.983 306.044,228.408 305.106 C 228.834 304.167,229.187 302.860,229.193 302.200 C 229.198 301.540,229.549 300.433,229.971 299.741 C 230.393 299.048,230.860 297.608,231.008 296.541 C 231.156 295.473,231.601 293.880,231.996 293.000 C 232.392 292.120,232.830 290.613,232.970 289.650 C 233.111 288.688,233.580 287.123,234.013 286.172 C 234.446 285.222,234.800 283.936,234.800 283.316 C 234.800 282.696,235.134 281.561,235.543 280.794 C 235.952 280.027,236.417 278.500,236.578 277.400 C 236.738 276.300,237.119 274.860,237.424 274.200 C 237.730 273.540,238.268 271.742,238.621 270.203 C 238.974 268.665,239.430 267.205,239.635 266.958 C 239.839 266.712,240.202 265.454,240.441 264.163 C 240.679 262.872,241.106 261.363,241.390 260.808 C 241.673 260.254,242.037 258.990,242.198 258.000 C 242.359 257.010,242.744 255.750,243.053 255.200 C 243.615 254.202,244.746 250.338,245.805 245.800 C 246.113 244.480,246.640 242.619,246.977 241.664 C 247.319 240.696,247.774 237.175,248.006 233.708 C 248.235 230.286,248.504 227.356,248.603 227.196 C 248.702 227.035,248.955 224.633,249.165 221.857 C 249.606 216.026,249.616 216.000,251.379 216.000 C 252.566 216.000,253.917 216.519,259.826 219.249 C 260.721 219.662,261.641 220.000,261.872 220.000 C 262.103 220.000,262.736 220.349,263.278 220.775 C 263.820 221.202,264.789 221.680,265.432 221.838 C 266.074 221.997,266.960 222.350,267.400 222.624 C 267.840 222.898,268.830 223.252,269.600 223.410 C 270.370 223.569,271.450 224.015,272.000 224.400 C 272.550 224.785,273.630 225.235,274.400 225.400 C 275.170 225.565,276.278 226.037,276.862 226.450 C 277.446 226.862,278.244 227.200,278.635 227.200 C 279.027 227.200,280.079 227.546,280.974 227.970 C 281.868 228.393,283.275 229.014,284.100 229.349 C 284.925 229.685,285.600 230.148,285.600 230.380 C 285.600 230.611,286.012 230.800,286.515 230.800 C 287.019 230.800,288.144 231.166,289.015 231.613 C 289.887 232.061,291.542 232.702,292.693 233.039 C 293.844 233.377,294.889 233.821,295.016 234.026 C 295.143 234.232,295.502 234.400,295.814 234.400 C 296.126 234.400,298.279 235.300,300.600 236.400 C 302.921 237.500,305.130 238.406,305.510 238.412 C 305.889 238.419,306.920 238.868,307.800 239.410 C 308.680 239.952,309.653 240.397,309.961 240.398 C 310.656 240.400,314.249 242.152,315.600 243.146 C 316.150 243.551,318.156 244.913,320.057 246.173 C 323.642 248.547,333.600 258.307,333.600 259.446 C 333.600 259.601,334.317 260.676,335.192 261.836 C 336.068 262.996,337.091 264.723,337.465 265.673 C 337.839 266.623,338.265 267.490,338.412 267.600 C 338.717 267.827,340.271 271.351,341.770 275.210 C 342.327 276.646,342.982 279.251,343.225 281.000 C 343.468 282.748,343.816 284.457,343.998 284.797 C 344.180 285.137,344.538 286.942,344.792 288.808 C 345.047 290.673,345.409 292.560,345.597 293.000 C 346.022 293.993,346.347 295.505,346.800 298.600 C 346.993 299.920,347.440 301.688,347.793 302.530 C 348.147 303.371,348.531 305.261,348.648 306.730 C 348.765 308.198,349.184 310.030,349.579 310.800 C 349.975 311.570,350.409 313.210,350.546 314.444 C 350.682 315.678,351.079 317.370,351.427 318.203 C 352.454 320.662,353.041 329.086,352.439 332.738 C 351.850 336.309,351.292 337.306,347.960 340.740 C 346.668 342.073,343.719 344.152,341.954 344.976 C 341.209 345.324,339.253 346.326,337.607 347.204 C 335.961 348.082,334.228 348.800,333.756 348.800 C 333.284 348.800,332.689 349.052,332.433 349.361 C 332.177 349.669,331.486 350.042,330.897 350.190 C 330.309 350.338,329.057 350.810,328.114 351.239 C 327.171 351.669,325.815 352.121,325.100 352.244 C 324.385 352.368,322.957 352.813,321.926 353.234 C 320.895 353.655,319.545 354.008,318.926 354.018 C 318.307 354.027,317.080 354.310,316.200 354.647 C 315.320 354.983,312.890 355.588,310.800 355.990 C 308.710 356.392,306.550 356.897,306.000 357.111 C 305.450 357.326,303.830 357.634,302.400 357.796 C 300.970 357.958,299.080 358.332,298.200 358.627 C 297.320 358.922,294.580 359.428,292.112 359.751 C 289.643 360.074,287.440 360.452,287.215 360.591 C 286.991 360.729,283.790 361.210,280.103 361.658 C 276.417 362.106,271.420 362.717,269.000 363.017 C 266.580 363.316,263.410 363.570,261.955 363.580 C 260.500 363.591,258.409 363.771,257.308 363.979 C 250.646 365.243,227.333 366.115,200.400 366.108 C 174.948 366.102,146.915 365.087,142.852 364.026 C 142.054 363.817,138.000 363.451,133.845 363.213 C 129.690 362.975,126.146 362.690,125.970 362.581 C 125.793 362.472,122.950 362.045,119.652 361.632 C 116.354 361.220,113.476 360.770,113.255 360.634 C 113.034 360.497,110.752 360.125,108.184 359.806 C 105.616 359.488,103.309 359.060,103.057 358.857 C 102.806 358.653,100.890 358.270,98.800 358.005 C 96.710 357.740,94.010 357.200,92.800 356.805 C 91.590 356.410,89.610 355.963,88.400 355.812 C 86.306 355.551,83.147 354.707,79.200 353.356 C 78.210 353.017,76.626 352.577,75.679 352.378 C 74.733 352.179,73.568 351.743,73.090 351.408 C 72.613 351.074,71.843 350.800,71.379 350.800 C 70.915 350.800,69.690 350.372,68.657 349.849 C 67.624 349.326,65.928 348.663,64.889 348.376 C 63.850 348.089,61.745 347.077,60.210 346.127 C 58.676 345.177,57.236 344.395,57.010 344.390 C 55.803 344.360,49.844 338.422,48.623 336.033 C 47.027 332.909,47.046 322.383,48.655 319.138 C 48.944 318.555,49.369 316.755,49.600 315.138 C 49.830 313.522,50.263 311.660,50.561 311.000 C 50.859 310.340,51.307 308.240,51.558 306.333 C 51.808 304.426,52.280 302.227,52.607 301.446 C 52.933 300.665,53.200 299.489,53.200 298.832 C 53.200 298.176,53.488 296.595,53.841 295.320 C 54.525 292.840,55.027 290.370,55.582 286.741 C 55.772 285.499,56.106 284.149,56.323 283.741 C 56.541 283.334,56.853 281.920,57.017 280.600 C 57.311 278.230,58.514 274.537,60.024 271.374 C 60.451 270.479,60.800 269.532,60.800 269.268 C 60.800 268.760,62.750 265.152,64.295 262.800 C 64.801 262.030,65.436 261.057,65.707 260.638 C 68.045 257.024,77.354 247.362,79.632 246.183 C 80.343 245.816,81.122 245.351,81.362 245.152 C 83.342 243.509,88.950 240.400,89.933 240.400 C 90.256 240.400,91.438 239.966,92.560 239.435 C 93.682 238.904,95.770 237.994,97.200 237.412 C 98.630 236.830,100.250 236.118,100.800 235.829 C 101.350 235.540,102.520 235.073,103.400 234.791 C 104.280 234.509,105.360 234.060,105.800 233.793 C 106.240 233.526,107.455 233.080,108.500 232.802 C 109.545 232.524,110.400 232.147,110.400 231.964 C 110.400 231.781,111.165 231.408,112.100 231.135 C 113.035 230.861,114.340 230.314,115.000 229.920 C 115.660 229.526,116.577 229.202,117.039 229.201 C 117.500 229.201,118.280 228.851,118.772 228.425 C 119.263 227.998,120.236 227.526,120.933 227.375 C 121.630 227.224,122.650 226.785,123.200 226.400 C 123.750 226.015,124.830 225.564,125.600 225.398 C 126.370 225.232,127.410 224.774,127.912 224.381 C 128.413 223.988,129.583 223.542,130.512 223.390 C 131.440 223.237,132.470 222.887,132.800 222.610 C 133.130 222.334,133.926 221.982,134.568 221.829 C 135.211 221.676,136.180 221.202,136.722 220.775 C 137.264 220.349,137.965 220.000,138.279 220.000 C 138.792 220.000,141.297 218.963,144.600 217.384 C 149.919 214.841,150.800 215.275,150.800 220.436 C 150.800 221.501,151.057 224.314,151.371 226.686 C 151.685 229.059,152.058 232.710,152.200 234.800 C 152.341 236.890,152.782 239.770,153.178 241.200 C 153.574 242.630,154.081 244.520,154.305 245.400 C 154.529 246.280,154.899 247.540,155.128 248.200 C 155.356 248.860,155.756 250.390,156.016 251.600 C 156.276 252.810,156.726 254.180,157.016 254.643 C 157.307 255.107,157.753 256.637,158.007 258.043 C 158.262 259.450,158.614 260.780,158.791 261.000 C 158.967 261.220,159.332 262.480,159.603 263.800 C 159.873 265.120,160.322 266.740,160.600 267.400 C 160.877 268.060,161.322 269.590,161.588 270.800 C 161.853 272.010,162.311 273.540,162.604 274.200 C 162.898 274.860,163.259 275.940,163.406 276.600 C 163.694 277.888,166.712 287.850,168.011 291.800 C 168.445 293.120,168.800 294.495,168.800 294.854 C 168.800 295.214,169.236 296.834,169.768 298.454 C 170.300 300.075,170.854 302.154,170.999 303.077 C 171.144 303.999,171.608 305.432,172.031 306.261 C 172.454 307.091,172.800 308.289,172.800 308.924 C 172.800 309.559,173.063 310.646,173.384 311.340 C 173.918 312.494,174.662 314.952,176.242 320.783 C 176.948 323.390,177.093 323.589,177.381 322.347 C 177.501 321.826,177.959 319.870,178.397 318.000 C 178.836 316.130,179.196 313.786,179.197 312.792 C 179.199 311.798,179.542 309.728,179.961 308.192 C 180.379 306.656,180.844 304.410,180.995 303.200 C 181.145 301.990,181.612 299.856,182.034 298.458 C 182.455 297.060,182.800 295.380,182.800 294.725 C 182.800 294.070,183.231 292.244,183.759 290.667 C 184.286 289.090,184.824 287.201,184.955 286.468 C 185.086 285.736,185.442 284.566,185.746 283.868 C 186.050 283.171,186.516 281.790,186.780 280.800 C 187.045 279.810,187.589 278.280,187.991 277.400 C 188.392 276.520,189.042 275.080,189.434 274.200 C 189.826 273.320,190.654 271.848,191.273 270.928 C 192.698 268.814,192.690 268.671,190.982 265.394 C 189.119 261.819,188.113 260.408,185.504 257.714 C 184.848 257.036,184.654 256.358,184.677 254.828 C 184.720 251.962,185.573 250.617,191.285 244.404 C 193.764 241.707,193.765 241.706,192.364 240.981 C 191.668 240.621,190.536 239.818,189.849 239.196 C 188.599 238.065,185.334 235.702,181.200 232.936 C 179.990 232.127,178.820 231.257,178.600 231.002 C 178.380 230.748,177.390 229.968,176.400 229.268 C 175.410 228.569,173.731 227.233,172.670 226.299 C 169.839 223.808,168.979 223.111,167.370 222.000 C 160.490 217.250,156.635 211.909,158.067 209.107 C 158.261 208.726,158.605 206.943,158.830 205.146 C 159.056 203.349,159.501 201.253,159.820 200.490 C 160.512 198.833,160.602 193.772,159.946 193.367 C 158.691 192.591,153.200 178.829,153.200 176.459 C 153.200 175.864,152.921 174.980,152.580 174.493 C 152.239 174.006,151.709 172.481,151.402 171.104 C 151.096 169.727,150.536 167.700,150.158 166.600 C 149.780 165.500,149.422 164.392,149.362 164.138 C 149.303 163.883,148.659 163.545,147.931 163.385 C 145.425 162.835,141.667 157.687,140.202 152.800 C 140.037 152.250,139.732 151.588,139.525 151.328 C 139.010 150.682,137.673 143.472,137.165 138.600 C 136.500 132.226,137.166 128.340,139.550 124.672 C 140.501 123.209,140.522 123.040,140.057 120.672 C 136.734 103.787,137.600 78.246,141.679 72.846 C 142.076 72.321,142.400 71.676,142.400 71.412 C 142.400 70.023,148.892 62.400,150.075 62.400 C 150.684 62.400,153.200 60.236,153.200 59.712 C 153.200 59.073,155.611 54.317,156.196 53.800 C 156.446 53.580,157.347 52.360,158.198 51.090 C 159.783 48.727,163.102 45.075,164.643 44.000 C 167.961 41.685,170.618 40.000,170.948 40.000 C 171.162 40.000,171.622 39.742,171.970 39.427 C 172.928 38.560,178.577 36.400,179.887 36.400 C 180.521 36.400,181.233 36.207,181.470 35.970 C 182.805 34.635,198.150 33.865,203.967 34.842 " stroke="none" fill="#fbfbfb" fill-rule="evenodd"></path><path id="path2" d="M184.850 35.006 C 183.227 35.300,181.706 35.734,181.470 35.970 C 181.233 36.207,180.521 36.400,179.887 36.400 C 178.577 36.400,172.928 38.560,171.970 39.427 C 171.622 39.742,171.162 40.000,170.948 40.000 C 170.618 40.000,167.961 41.685,164.643 44.000 C 163.102 45.075,159.783 48.727,158.198 51.090 C 157.347 52.360,156.446 53.580,156.196 53.800 C 155.611 54.317,153.200 59.073,153.200 59.712 C 153.200 60.236,150.684 62.400,150.075 62.400 C 148.892 62.400,142.400 70.023,142.400 71.412 C 142.400 71.676,142.076 72.321,141.679 72.846 C 137.600 78.246,136.734 103.787,140.057 120.672 C 140.522 123.040,140.501 123.209,139.550 124.672 C 137.166 128.340,136.500 132.226,137.165 138.600 C 137.673 143.472,139.010 150.682,139.525 151.328 C 139.732 151.588,140.037 152.250,140.202 152.800 C 141.667 157.687,145.425 162.835,147.931 163.385 C 148.659 163.545,149.303 163.883,149.362 164.138 C 149.422 164.392,149.780 165.500,150.158 166.600 C 150.536 167.700,151.096 169.727,151.402 171.104 C 151.709 172.481,152.239 174.006,152.580 174.493 C 152.921 174.980,153.200 175.864,153.200 176.459 C 153.200 178.829,158.691 192.591,159.946 193.367 C 160.602 193.772,160.512 198.833,159.820 200.490 C 159.501 201.253,159.056 203.349,158.830 205.146 C 158.605 206.943,158.261 208.726,158.067 209.107 C 156.635 211.909,160.490 217.250,167.370 222.000 C 168.979 223.111,169.839 223.808,172.670 226.299 C 173.731 227.233,175.410 228.569,176.400 229.268 C 177.390 229.968,178.380 230.748,178.600 231.002 C 178.820 231.257,179.990 232.127,181.200 232.936 C 185.334 235.702,188.599 238.065,189.849 239.196 C 190.536 239.818,191.668 240.621,192.364 240.981 C 193.765 241.706,193.764 241.707,191.285 244.404 C 185.573 250.617,184.720 251.962,184.677 254.828 C 184.654 256.358,184.848 257.036,185.504 257.714 C 188.113 260.408,189.119 261.819,190.982 265.394 C 192.690 268.671,192.698 268.814,191.273 270.928 C 190.654 271.848,189.826 273.320,189.434 274.200 C 189.042 275.080,188.392 276.520,187.991 277.400 C 187.589 278.280,187.045 279.810,186.780 280.800 C 186.516 281.790,186.050 283.171,185.746 283.868 C 185.442 284.566,185.086 285.736,184.955 286.468 C 184.824 287.201,184.286 289.090,183.759 290.667 C 183.231 292.244,182.800 294.070,182.800 294.725 C 182.800 295.380,182.455 297.060,182.034 298.458 C 181.612 299.856,181.145 301.990,180.995 303.200 C 180.844 304.410,180.379 306.656,179.961 308.192 C 179.542 309.728,179.199 311.798,179.197 312.792 C 179.196 313.786,178.836 316.130,178.397 318.000 C 177.959 319.870,177.501 321.826,177.381 322.347 C 177.093 323.589,176.948 323.390,176.242 320.783 C 174.662 314.952,173.918 312.494,173.384 311.340 C 173.063 310.646,172.800 309.559,172.800 308.924 C 172.800 308.289,172.454 307.091,172.031 306.261 C 171.608 305.432,171.144 303.999,170.999 303.077 C 170.854 302.154,170.300 300.075,169.768 298.454 C 169.236 296.834,168.800 295.214,168.800 294.854 C 168.800 294.495,168.445 293.120,168.011 291.800 C 166.712 287.850,163.694 277.888,163.406 276.600 C 163.259 275.940,162.898 274.860,162.604 274.200 C 162.311 273.540,161.853 272.010,161.588 270.800 C 161.322 269.590,160.877 268.060,160.600 267.400 C 160.322 266.740,159.873 265.120,159.603 263.800 C 159.332 262.480,158.967 261.220,158.791 261.000 C 158.614 260.780,158.262 259.450,158.007 258.043 C 157.753 256.637,157.307 255.107,157.016 254.643 C 156.726 254.180,156.276 252.810,156.016 251.600 C 155.756 250.390,155.356 248.860,155.128 248.200 C 154.899 247.540,154.529 246.280,154.305 245.400 C 154.081 244.520,153.574 242.630,153.178 241.200 C 152.782 239.770,152.341 236.890,152.200 234.800 C 152.058 232.710,151.685 229.059,151.371 226.686 C 151.057 224.314,150.800 221.501,150.800 220.436 C 150.800 215.275,149.919 214.841,144.600 217.384 C 141.297 218.963,138.792 220.000,138.279 220.000 C 137.965 220.000,137.264 220.349,136.722 220.775 C 136.180 221.202,135.211 221.676,134.568 221.829 C 133.926 221.982,133.130 222.334,132.800 222.610 C 132.470 222.887,131.440 223.237,130.512 223.390 C 129.583 223.542,128.413 223.988,127.912 224.381 C 127.410 224.774,126.370 225.232,125.600 225.398 C 124.830 225.564,123.750 226.015,123.200 226.400 C 122.650 226.785,121.630 227.224,120.933 227.375 C 120.236 227.526,119.263 227.998,118.772 228.425 C 118.280 228.851,117.500 229.201,117.039 229.201 C 116.577 229.202,115.660 229.526,115.000 229.920 C 114.340 230.314,113.035 230.861,112.100 231.135 C 111.165 231.408,110.400 231.781,110.400 231.964 C 110.400 232.147,109.545 232.524,108.500 232.802 C 107.455 233.080,106.240 233.526,105.800 233.793 C 105.360 234.060,104.280 234.509,103.400 234.791 C 102.520 235.073,101.350 235.540,100.800 235.829 C 100.250 236.118,98.630 236.830,97.200 237.412 C 95.770 237.994,93.682 238.904,92.560 239.435 C 91.438 239.966,90.256 240.400,89.933 240.400 C 88.950 240.400,83.342 243.509,81.362 245.152 C 81.122 245.351,80.343 245.816,79.632 246.183 C 77.354 247.362,68.045 257.024,65.707 260.638 C 65.436 261.057,64.801 262.030,64.295 262.800 C 62.750 265.152,60.800 268.760,60.800 269.268 C 60.800 269.532,60.451 270.479,60.024 271.374 C 58.514 274.537,57.311 278.230,57.017 280.600 C 56.853 281.920,56.541 283.334,56.323 283.741 C 56.106 284.149,55.772 285.499,55.582 286.741 C 55.027 290.370,54.525 292.840,53.841 295.320 C 53.488 296.595,53.200 298.176,53.200 298.832 C 53.200 299.489,52.933 300.665,52.607 301.446 C 52.280 302.227,51.808 304.426,51.558 306.333 C 51.307 308.240,50.859 310.340,50.561 311.000 C 50.263 311.660,49.830 313.522,49.600 315.138 C 49.369 316.755,48.944 318.555,48.655 319.138 C 47.046 322.383,47.027 332.909,48.623 336.033 C 49.844 338.422,55.803 344.360,57.010 344.390 C 57.236 344.395,58.676 345.177,60.210 346.127 C 61.745 347.077,63.850 348.089,64.889 348.376 C 65.928 348.663,67.624 349.326,68.657 349.849 C 69.690 350.372,70.915 350.800,71.379 350.800 C 71.843 350.800,72.613 351.074,73.090 351.408 C 73.568 351.743,74.733 352.179,75.679 352.378 C 76.626 352.577,78.210 353.017,79.200 353.356 C 83.147 354.707,86.306 355.551,88.400 355.812 C 89.610 355.963,91.590 356.410,92.800 356.805 C 94.010 357.200,96.710 357.740,98.800 358.005 C 100.890 358.270,102.806 358.653,103.057 358.857 C 103.309 359.060,105.616 359.488,108.184 359.806 C 110.752 360.125,113.034 360.497,113.255 360.634 C 113.476 360.770,116.354 361.220,119.652 361.632 C 122.950 362.045,125.793 362.472,125.970 362.581 C 126.146 362.690,129.690 362.975,133.845 363.213 C 138.000 363.451,142.054 363.817,142.852 364.026 C 146.915 365.087,174.948 366.102,200.400 366.108 C 227.333 366.115,250.646 365.243,257.308 363.979 C 258.409 363.771,260.500 363.591,261.955 363.580 C 263.410 363.570,266.580 363.316,269.000 363.017 C 271.420 362.717,276.417 362.106,280.103 361.658 C 283.790 361.210,286.991 360.729,287.215 360.591 C 287.440 360.452,289.643 360.074,292.112 359.751 C 294.580 359.428,297.320 358.922,298.200 358.627 C 299.080 358.332,300.970 357.958,302.400 357.796 C 303.830 357.634,305.450 357.326,306.000 357.111 C 306.550 356.897,308.710 356.392,310.800 355.990 C 312.890 355.588,315.320 354.983,316.200 354.647 C 317.080 354.310,318.307 354.027,318.926 354.018 C 319.545 354.008,320.895 353.655,321.926 353.234 C 322.957 352.813,324.385 352.368,325.100 352.244 C 325.815 352.121,327.171 351.669,328.114 351.239 C 329.057 350.810,330.309 350.338,330.897 350.190 C 331.486 350.042,332.177 349.669,332.433 349.361 C 332.689 349.052,333.284 348.800,333.756 348.800 C 334.228 348.800,335.961 348.082,337.607 347.204 C 339.253 346.326,341.209 345.324,341.954 344.976 C 343.719 344.152,346.668 342.073,347.960 340.740 C 351.292 337.306,351.850 336.309,352.439 332.738 C 353.041 329.086,352.454 320.662,351.427 318.203 C 351.079 317.370,350.682 315.678,350.546 314.444 C 350.409 313.210,349.975 311.570,349.579 310.800 C 349.184 310.030,348.765 308.198,348.648 306.730 C 348.531 305.261,348.147 303.371,347.793 302.530 C 347.440 301.688,346.993 299.920,346.800 298.600 C 346.347 295.505,346.022 293.993,345.597 293.000 C 345.409 292.560,345.047 290.673,344.792 288.808 C 344.538 286.942,344.180 285.137,343.998 284.797 C 343.816 284.457,343.468 282.748,343.225 281.000 C 342.982 279.251,342.327 276.646,341.770 275.210 C 340.271 271.351,338.717 267.827,338.412 267.600 C 338.265 267.490,337.839 266.623,337.465 265.673 C 337.091 264.723,336.068 262.996,335.192 261.836 C 334.317 260.676,333.600 259.601,333.600 259.446 C 333.600 258.307,323.642 248.547,320.057 246.173 C 318.156 244.913,316.150 243.551,315.600 243.146 C 314.249 242.152,310.656 240.400,309.961 240.398 C 309.653 240.397,308.680 239.952,307.800 239.410 C 306.920 238.868,305.889 238.419,305.510 238.412 C 305.130 238.406,302.921 237.500,300.600 236.400 C 298.279 235.300,296.126 234.400,295.814 234.400 C 295.502 234.400,295.143 234.232,295.016 234.026 C 294.889 233.821,293.844 233.377,292.693 233.039 C 291.542 232.702,289.887 232.061,289.015 231.613 C 288.144 231.166,287.019 230.800,286.515 230.800 C 286.012 230.800,285.600 230.611,285.600 230.380 C 285.600 230.148,284.925 229.685,284.100 229.349 C 283.275 229.014,281.868 228.393,280.974 227.970 C 280.079 227.546,279.027 227.200,278.635 227.200 C 278.244 227.200,277.446 226.862,276.862 226.450 C 276.278 226.037,275.170 225.565,274.400 225.400 C 273.630 225.235,272.550 224.785,272.000 224.400 C 271.450 224.015,270.370 223.569,269.600 223.410 C 268.830 223.252,267.840 222.898,267.400 222.624 C 266.960 222.350,266.074 221.997,265.432 221.838 C 264.789 221.680,263.820 221.202,263.278 220.775 C 262.736 220.349,262.103 220.000,261.872 220.000 C 261.641 220.000,260.721 219.662,259.826 219.249 C 249.472 214.466,249.729 214.403,249.165 221.857 C 248.955 224.633,248.702 227.035,248.603 227.196 C 248.504 227.356,248.235 230.286,248.006 233.708 C 247.774 237.175,247.319 240.696,246.977 241.664 C 246.640 242.619,246.113 244.480,245.805 245.800 C 244.746 250.338,243.615 254.202,243.053 255.200 C 242.744 255.750,242.359 257.010,242.198 258.000 C 242.037 258.990,241.673 260.254,241.390 260.808 C 241.106 261.363,240.679 262.872,240.441 264.163 C 240.202 265.454,239.839 266.712,239.635 266.958 C 239.430 267.205,238.974 268.665,238.621 270.203 C 238.268 271.742,237.730 273.540,237.424 274.200 C 237.119 274.860,236.738 276.300,236.578 277.400 C 236.417 278.500,235.952 280.027,235.543 280.794 C 235.134 281.561,234.800 282.696,234.800 283.316 C 234.800 283.936,234.446 285.222,234.013 286.172 C 233.580 287.123,233.111 288.688,232.970 289.650 C 232.830 290.613,232.392 292.120,231.996 293.000 C 231.601 293.880,231.156 295.473,231.008 296.541 C 230.860 297.608,230.393 299.048,229.971 299.741 C 229.549 300.433,229.198 301.540,229.193 302.200 C 229.187 302.860,228.834 304.167,228.408 305.106 C 227.983 306.044,227.519 307.484,227.377 308.306 C 227.140 309.684,226.010 313.604,224.581 318.000 C 224.259 318.990,223.997 320.013,223.998 320.274 C 224.001 320.997,223.203 322.936,222.990 322.723 C 222.521 322.254,221.141 315.850,220.796 312.547 C 220.587 310.537,220.230 308.404,220.002 307.805 C 219.775 307.207,219.337 305.044,219.030 302.999 C 218.723 300.954,218.284 298.932,218.056 298.505 C 217.828 298.079,217.457 296.261,217.232 294.467 C 217.007 292.673,216.563 290.703,216.246 290.089 C 215.928 289.475,215.537 288.269,215.376 287.410 C 214.861 284.666,212.329 277.545,211.105 275.400 C 210.854 274.960,210.299 273.880,209.873 273.000 C 209.446 272.120,208.752 270.910,208.330 270.312 C 207.483 269.111,207.827 266.574,208.964 265.630 C 209.270 265.376,209.637 264.707,209.778 264.145 C 210.031 263.139,213.522 258.647,214.764 257.731 C 215.238 257.381,215.391 256.607,215.364 254.687 C 215.323 251.670,214.562 250.514,208.113 243.673 C 206.508 241.971,206.267 241.213,207.324 241.189 C 207.586 241.183,208.700 240.375,209.800 239.393 C 210.900 238.411,212.003 237.606,212.251 237.604 C 212.499 237.602,212.909 237.351,213.162 237.046 C 213.415 236.741,214.896 235.616,216.454 234.546 C 218.012 233.476,219.786 232.240,220.397 231.800 C 221.007 231.360,222.563 230.288,223.853 229.418 C 225.144 228.548,227.280 226.810,228.600 225.555 C 229.920 224.300,231.810 222.623,232.800 221.829 C 235.026 220.041,239.624 215.875,241.440 214.000 C 242.968 212.422,243.027 212.076,242.235 209.346 C 241.925 208.276,241.456 205.960,241.194 204.200 C 240.932 202.440,240.522 200.640,240.283 200.200 C 239.411 198.596,239.782 194.352,240.942 192.645 C 241.523 191.790,242.365 189.862,242.812 188.361 C 243.259 186.860,243.774 185.540,243.957 185.426 C 244.140 185.313,244.512 184.361,244.782 183.310 C 245.259 181.457,245.395 181.057,246.350 178.681 C 246.598 178.066,246.800 177.163,246.800 176.675 C 246.800 176.187,247.145 175.145,247.566 174.360 C 247.987 173.574,248.456 172.047,248.608 170.966 C 248.761 169.884,249.200 168.450,249.584 167.777 C 249.968 167.105,250.403 165.909,250.551 165.120 C 250.781 163.893,251.011 163.649,252.136 163.438 C 254.529 162.989,258.466 157.513,259.784 152.800 C 259.938 152.250,260.329 151.213,260.653 150.496 C 261.203 149.276,261.883 146.418,262.862 141.200 C 263.090 139.990,263.189 136.823,263.083 134.161 C 262.883 129.159,262.861 129.079,260.295 124.200 C 259.643 122.961,259.750 120.965,260.746 115.743 C 262.539 106.341,262.425 82.024,260.569 78.239 C 260.256 77.600,260.000 76.802,260.000 76.465 C 260.000 76.128,259.654 75.121,259.230 74.226 C 258.807 73.332,258.181 71.970,257.838 71.200 C 257.167 69.690,256.702 68.906,255.301 66.927 C 254.805 66.226,254.400 65.486,254.400 65.282 C 254.400 64.225,248.257 57.321,244.306 53.939 C 243.368 53.135,241.520 51.540,240.200 50.393 C 238.880 49.247,237.350 48.115,236.800 47.878 C 236.250 47.641,235.440 47.145,235.000 46.775 C 234.240 46.137,233.659 45.801,230.407 44.120 C 229.641 43.724,228.115 42.815,227.016 42.100 C 225.917 41.385,224.744 40.797,224.409 40.794 C 223.755 40.788,221.907 40.135,219.513 39.065 C 218.695 38.699,217.830 38.400,217.591 38.400 C 217.352 38.400,216.311 38.007,215.278 37.527 C 214.210 37.030,212.282 36.577,210.806 36.474 C 209.379 36.376,207.849 36.067,207.406 35.790 C 205.187 34.398,190.940 33.904,184.850 35.006 M203.771 35.809 C 205.057 36.144,207.352 36.595,208.870 36.810 C 211.318 37.157,213.346 37.773,220.000 40.192 C 222.188 40.987,225.047 42.256,226.400 43.032 C 226.950 43.347,228.570 44.173,230.000 44.867 C 232.855 46.253,237.904 49.485,239.551 50.982 C 240.128 51.506,241.860 53.009,243.400 54.322 C 246.126 56.646,251.431 62.227,252.166 63.545 C 252.367 63.905,252.644 64.290,252.781 64.400 C 253.272 64.794,257.099 71.452,257.388 72.416 C 257.550 72.957,257.906 73.760,258.177 74.200 C 260.789 78.431,262.121 92.291,261.002 103.600 C 259.755 116.198,259.568 117.882,259.167 120.135 C 258.694 122.798,258.966 124.642,260.003 125.800 C 265.592 132.040,258.632 162.800,251.631 162.800 C 250.529 162.800,249.799 163.948,248.832 167.200 C 248.342 168.850,247.594 171.329,247.170 172.708 C 246.747 174.088,246.400 175.623,246.400 176.119 C 246.400 176.616,246.148 177.382,245.839 177.823 C 245.531 178.263,245.075 179.428,244.827 180.412 C 244.578 181.395,244.028 183.010,243.604 184.000 C 242.461 186.668,240.800 191.021,240.800 191.348 C 240.800 191.505,240.464 191.994,240.053 192.435 C 238.686 193.903,238.677 196.928,240.020 203.467 C 242.037 213.289,242.325 211.735,237.643 216.272 C 235.413 218.432,232.852 220.740,231.952 221.400 C 231.053 222.060,229.300 223.537,228.058 224.682 C 225.929 226.646,223.374 228.585,217.800 232.468 C 216.480 233.388,215.310 234.259,215.200 234.405 C 215.090 234.551,214.010 235.334,212.800 236.144 C 211.590 236.954,210.060 238.071,209.400 238.626 C 207.690 240.064,207.483 240.209,206.691 240.511 C 205.292 241.045,205.589 244.000,207.042 244.000 C 207.659 244.000,213.368 250.905,214.201 252.660 C 215.128 254.611,214.941 255.839,213.464 257.499 C 210.790 260.504,210.409 261.061,208.620 264.575 C 206.436 268.865,206.436 268.862,208.200 271.600 C 208.970 272.795,209.606 273.959,209.613 274.187 C 209.619 274.414,210.159 275.675,210.813 276.990 C 211.466 278.304,212.000 279.663,212.000 280.010 C 212.000 280.356,212.166 280.811,212.368 281.020 C 212.570 281.229,213.010 282.390,213.346 283.600 C 213.681 284.810,214.318 287.111,214.762 288.713 C 215.205 290.314,215.664 291.780,215.782 291.970 C 215.899 292.160,216.346 294.096,216.775 296.272 C 217.204 298.448,217.744 300.728,217.976 301.338 C 218.208 301.948,218.601 304.191,218.849 306.323 C 219.096 308.456,219.522 310.650,219.795 311.200 C 220.068 311.750,220.414 313.820,220.564 315.800 C 221.478 327.874,223.186 328.332,225.786 317.200 C 226.068 315.990,226.516 314.460,226.780 313.800 C 227.044 313.140,227.442 311.610,227.664 310.400 C 227.887 309.190,228.302 307.660,228.587 307.000 C 229.083 305.851,230.497 301.296,232.621 294.000 C 233.166 292.130,233.860 289.790,234.163 288.800 C 234.467 287.810,234.938 286.010,235.210 284.800 C 235.482 283.590,235.856 282.408,236.041 282.173 C 236.226 281.938,236.580 280.768,236.828 279.573 C 237.075 278.378,237.698 276.140,238.212 274.600 C 240.175 268.717,242.400 261.311,242.400 260.662 C 242.400 260.290,242.850 258.697,243.400 257.123 C 243.950 255.549,244.400 253.931,244.400 253.529 C 244.400 253.126,244.760 252.125,245.200 251.304 C 245.640 250.484,246.000 249.415,246.000 248.931 C 246.000 248.446,246.427 246.643,246.949 244.925 C 248.416 240.098,249.139 235.283,249.640 227.000 C 250.206 217.653,250.345 216.963,251.636 217.109 C 252.693 217.228,258.636 219.487,261.800 220.972 C 266.414 223.138,267.471 223.600,267.821 223.600 C 268.023 223.600,269.091 224.032,270.194 224.561 C 272.324 225.581,276.478 227.301,280.866 228.979 C 282.332 229.540,284.042 230.257,284.666 230.574 C 286.732 231.622,290.145 233.122,294.600 234.939 C 297.020 235.926,299.720 237.051,300.600 237.438 C 301.480 237.826,303.010 238.450,304.000 238.824 C 307.257 240.054,313.053 242.726,314.519 243.671 C 315.310 244.182,317.361 245.500,319.076 246.600 C 321.685 248.273,323.305 249.565,325.714 251.896 C 327.666 253.783,331.518 258.258,332.691 260.000 C 333.506 261.210,334.476 262.560,334.846 263.000 C 335.568 263.857,338.535 269.714,339.913 273.000 C 341.193 276.051,341.949 278.695,342.600 282.398 C 342.926 284.252,343.449 286.676,343.764 287.784 C 344.078 288.893,344.534 291.126,344.778 292.747 C 345.022 294.367,345.371 295.987,345.554 296.347 C 345.737 296.706,346.109 298.422,346.382 300.159 C 346.654 301.897,347.130 304.034,347.439 304.909 C 347.747 305.785,348.000 307.035,348.000 307.688 C 348.000 308.341,348.347 310.074,348.770 311.538 C 351.806 322.027,352.705 330.197,351.241 334.000 C 349.801 337.741,347.149 340.623,342.716 343.262 C 336.393 347.025,335.916 347.260,330.200 349.436 C 328.000 350.273,326.029 351.103,325.820 351.279 C 325.611 351.456,325.130 351.600,324.752 351.600 C 324.373 351.600,321.484 352.326,318.332 353.212 C 315.179 354.099,311.250 355.093,309.600 355.422 C 307.950 355.750,305.687 356.284,304.572 356.607 C 303.456 356.931,301.656 357.295,300.572 357.416 C 299.487 357.537,296.980 357.972,295.000 358.382 C 287.524 359.931,272.561 361.685,249.000 363.775 C 224.094 365.984,168.988 365.665,143.800 363.166 C 141.380 362.925,136.790 362.483,133.600 362.181 C 122.042 361.091,112.638 359.841,106.400 358.569 C 104.750 358.232,102.140 357.815,100.600 357.641 C 99.060 357.468,96.810 357.035,95.600 356.678 C 94.390 356.322,91.330 355.557,88.800 354.978 C 86.270 354.399,82.485 353.403,80.389 352.763 C 78.292 352.123,76.212 351.600,75.765 351.600 C 75.318 351.600,74.604 351.336,74.176 351.013 C 73.749 350.690,73.166 350.420,72.879 350.413 C 69.980 350.342,52.400 341.053,52.400 339.592 C 52.400 339.396,51.934 338.771,51.365 338.202 C 49.966 336.803,48.355 332.709,48.099 329.903 C 47.864 327.322,48.562 323.247,50.823 314.000 C 51.281 312.130,51.800 309.592,51.977 308.359 C 52.154 307.127,52.489 305.507,52.720 304.759 C 52.952 304.012,53.354 302.050,53.613 300.400 C 53.872 298.750,54.312 296.770,54.590 296.000 C 54.869 295.230,55.227 293.532,55.387 292.226 C 55.546 290.920,55.841 289.419,56.042 288.889 C 56.244 288.359,56.681 286.548,57.015 284.863 C 59.061 274.522,63.413 264.330,67.896 259.382 C 68.286 258.952,69.495 257.520,70.582 256.200 C 73.310 252.890,77.767 248.677,80.400 246.921 C 81.610 246.113,82.690 245.329,82.800 245.178 C 83.142 244.707,89.726 241.309,91.200 240.842 C 91.970 240.598,93.486 239.949,94.568 239.399 C 95.650 238.850,96.829 238.400,97.188 238.400 C 97.547 238.400,98.011 238.256,98.220 238.080 C 98.429 237.904,100.040 237.169,101.800 236.445 C 103.560 235.722,105.900 234.759,107.000 234.306 C 108.100 233.853,109.900 233.071,111.000 232.569 C 113.815 231.283,125.486 226.401,127.358 225.726 C 128.215 225.417,129.290 224.902,129.747 224.582 C 130.204 224.262,130.819 224.000,131.114 224.000 C 131.620 224.000,135.289 222.451,136.975 221.525 C 138.093 220.911,148.398 216.800,148.818 216.800 C 149.634 216.800,149.937 218.618,150.389 226.200 C 151.018 236.755,152.079 242.048,156.363 256.000 C 156.802 257.430,157.457 259.770,157.817 261.200 C 158.177 262.630,158.795 264.790,159.191 266.000 C 159.586 267.210,160.215 269.280,160.587 270.600 C 160.960 271.920,161.608 273.900,162.026 275.000 C 162.445 276.100,162.982 277.990,163.221 279.200 C 163.459 280.410,163.934 282.120,164.276 283.000 C 164.618 283.880,165.121 285.500,165.396 286.600 C 166.827 292.343,170.616 305.121,171.645 307.674 C 172.060 308.705,172.398 309.875,172.396 310.274 C 172.394 310.673,172.748 312.080,173.182 313.400 C 173.617 314.720,174.535 317.870,175.223 320.400 C 177.406 328.429,177.830 327.912,179.812 314.800 C 181.263 305.203,182.894 297.071,184.386 292.000 C 184.806 290.570,185.628 287.780,186.213 285.800 C 187.557 281.245,190.696 273.423,191.900 271.629 C 192.406 270.875,192.930 269.821,193.064 269.287 C 193.427 267.839,189.940 261.114,187.472 258.504 C 184.467 255.324,184.843 252.931,189.074 248.317 C 190.023 247.282,190.800 246.249,190.800 246.023 C 190.800 245.797,191.494 245.152,192.343 244.590 C 194.932 242.877,195.121 241.826,193.093 240.426 C 192.162 239.783,190.950 238.886,190.400 238.433 C 189.850 237.980,186.858 235.762,183.751 233.505 C 176.973 228.580,173.415 225.852,171.800 224.344 C 171.140 223.727,169.520 222.449,168.200 221.504 C 166.880 220.559,164.150 218.079,162.134 215.993 L 158.467 212.200 159.059 209.000 C 159.384 207.240,159.999 204.237,160.425 202.326 C 161.342 198.217,161.415 194.592,160.610 193.200 C 160.292 192.650,159.915 191.930,159.773 191.600 C 159.630 191.270,159.115 190.100,158.628 189.000 C 156.193 183.505,155.607 182.073,155.194 180.600 C 154.946 179.720,154.582 178.640,154.383 178.200 C 154.184 177.760,153.758 176.320,153.436 175.000 C 152.674 171.873,150.870 165.435,150.435 164.291 C 150.242 163.786,149.473 163.170,148.671 162.880 C 140.859 160.055,134.626 134.244,139.835 126.291 C 141.263 124.111,141.371 122.965,140.629 117.917 C 140.263 115.433,139.779 112.140,139.552 110.600 C 137.675 97.860,139.090 79.953,142.491 73.400 C 146.041 66.559,147.687 64.605,151.426 62.790 C 152.769 62.138,153.218 61.602,153.998 59.719 C 156.580 53.491,162.462 46.456,168.200 42.734 C 172.166 40.161,178.168 37.197,179.408 37.199 C 179.852 37.200,181.472 36.854,183.008 36.431 C 188.022 35.051,199.536 34.706,203.771 35.809 " stroke="none" fill="#9d9da3" fill-rule="evenodd"></path><path id="path3" d="M188.400 35.632 C 186.750 35.790,184.410 36.206,183.200 36.555 C 181.990 36.905,180.460 37.197,179.800 37.204 C 179.140 37.212,178.150 37.570,177.600 38.000 C 177.050 38.430,176.354 38.786,176.054 38.791 C 173.094 38.839,164.102 45.444,160.250 50.400 C 156.297 55.485,156.257 55.546,154.592 59.088 C 153.447 61.524,152.782 62.470,152.023 62.740 C 148.903 63.852,146.299 66.677,143.488 72.000 C 142.849 73.210,142.188 74.380,142.019 74.600 C 138.567 79.107,138.005 104.082,141.017 119.111 C 141.809 123.065,141.765 123.647,140.537 125.444 C 134.826 133.798,140.656 159.762,148.924 162.801 L 150.600 163.416 151.722 167.608 C 152.339 169.914,153.124 172.970,153.466 174.400 C 153.809 175.830,154.318 177.450,154.598 178.000 C 154.878 178.550,155.235 179.630,155.391 180.400 C 155.672 181.789,159.654 191.065,160.628 192.600 C 161.644 194.201,161.735 197.729,160.864 201.676 C 159.566 207.558,158.789 211.365,158.795 211.819 C 158.804 212.568,165.937 219.675,168.574 221.562 C 169.987 222.573,172.210 224.300,173.515 225.400 C 176.057 227.543,177.381 228.563,184.132 233.580 C 186.515 235.351,188.564 236.800,188.687 236.800 C 188.810 236.800,189.663 237.475,190.583 238.300 C 191.504 239.125,192.848 240.117,193.570 240.505 C 195.019 241.284,195.081 242.973,193.692 243.800 C 192.067 244.766,187.647 249.951,186.458 252.284 C 185.145 254.861,185.322 255.829,187.531 258.165 C 189.602 260.354,193.132 266.832,193.266 268.689 C 193.352 269.876,192.736 271.273,191.579 272.514 C 191.187 272.935,190.748 273.753,190.602 274.333 C 190.457 274.913,189.929 276.290,189.430 277.394 C 187.991 280.577,186.590 284.855,184.602 292.140 C 183.831 294.967,183.200 297.599,183.200 297.988 C 183.200 298.377,182.843 299.813,182.407 301.179 C 181.971 302.544,181.492 305.123,181.343 306.908 C 181.194 308.694,180.832 310.615,180.538 311.178 C 180.245 311.740,180.007 312.740,180.009 313.400 C 180.022 316.686,178.654 324.633,177.947 325.384 C 176.708 326.702,176.393 326.112,174.648 319.200 C 174.287 317.770,173.708 315.752,173.362 314.717 C 173.015 313.681,172.492 311.791,172.199 310.517 C 171.906 309.242,171.053 306.400,170.303 304.200 C 169.553 302.000,168.525 298.670,168.018 296.800 C 167.511 294.930,166.670 292.055,166.148 290.411 C 165.627 288.767,165.200 287.146,165.200 286.809 C 165.200 286.472,164.750 284.956,164.200 283.440 C 163.650 281.923,163.200 280.367,163.200 279.982 C 163.200 279.597,162.502 277.149,161.649 274.541 C 159.383 267.616,156.597 258.170,155.591 254.000 C 155.405 253.230,154.989 251.790,154.667 250.800 C 152.091 242.898,150.891 236.986,150.402 229.800 C 149.645 218.654,149.512 217.541,148.913 217.311 C 148.354 217.097,142.955 218.987,142.220 219.655 C 142.011 219.845,141.575 220.000,141.252 220.000 C 140.668 220.000,136.769 221.712,133.921 223.218 C 133.107 223.648,132.219 224.000,131.947 224.000 C 131.675 224.000,130.721 224.349,129.826 224.775 C 127.117 226.067,121.064 228.669,120.000 229.000 C 119.450 229.170,118.100 229.716,117.000 230.212 C 112.894 232.064,101.742 236.800,101.487 236.800 C 101.342 236.800,100.240 237.250,99.037 237.800 C 97.835 238.350,96.754 238.800,96.636 238.800 C 96.517 238.800,95.291 239.308,93.910 239.930 C 92.530 240.551,90.770 241.307,90.000 241.609 C 85.329 243.445,79.369 247.493,74.257 252.301 C 70.771 255.579,63.402 265.880,62.025 269.400 C 61.508 270.720,60.693 272.700,60.214 273.800 C 59.735 274.900,58.853 277.960,58.253 280.600 C 57.654 283.240,56.821 286.750,56.403 288.400 C 55.984 290.050,55.530 292.262,55.394 293.315 C 55.258 294.369,54.888 295.848,54.573 296.602 C 54.258 297.357,54.000 298.453,54.000 299.039 C 54.000 300.005,53.050 304.753,51.371 312.174 C 50.774 314.813,49.966 318.558,48.565 325.182 C 47.620 329.649,48.671 334.581,51.177 337.435 C 51.850 338.201,52.400 338.996,52.400 339.201 C 52.400 339.561,55.575 341.985,57.612 343.179 C 62.346 345.955,65.716 347.703,67.400 348.253 C 68.500 348.612,69.580 349.041,69.800 349.207 C 70.020 349.372,70.830 349.638,71.600 349.797 C 72.370 349.956,73.561 350.427,74.247 350.843 C 74.933 351.259,75.886 351.600,76.365 351.600 C 76.844 351.600,79.073 352.126,81.318 352.769 C 85.960 354.099,87.909 354.601,91.600 355.417 C 93.030 355.734,95.135 356.278,96.278 356.627 C 97.421 356.975,99.671 357.415,101.278 357.605 C 102.885 357.794,105.730 358.218,107.600 358.546 C 113.841 359.641,122.137 360.785,128.400 361.416 C 131.810 361.759,136.940 362.298,139.800 362.614 C 142.660 362.930,148.420 363.371,152.600 363.594 C 156.780 363.818,161.820 364.216,163.800 364.479 C 166.312 364.812,176.646 364.964,198.000 364.979 C 234.087 365.004,238.602 364.783,271.200 361.398 C 276.590 360.838,282.415 360.115,284.144 359.790 C 285.873 359.466,288.033 359.194,288.944 359.186 C 289.855 359.178,291.770 358.901,293.200 358.571 C 294.630 358.241,296.970 357.817,298.400 357.630 C 301.429 357.235,303.084 356.878,304.200 356.382 C 304.640 356.186,306.440 355.762,308.200 355.440 C 309.960 355.118,313.020 354.405,315.000 353.856 C 316.980 353.308,320.016 352.487,321.747 352.034 C 325.046 351.169,329.518 349.662,330.200 349.185 C 330.420 349.032,331.501 348.612,332.602 348.253 C 336.410 347.012,346.932 340.703,348.031 339.001 C 348.344 338.517,349.165 337.279,349.857 336.251 C 352.648 332.096,352.403 326.071,348.920 313.200 C 348.592 311.990,348.179 310.010,348.001 308.800 C 347.823 307.590,347.387 305.520,347.032 304.200 C 346.678 302.880,346.275 300.810,346.138 299.600 C 346.001 298.390,345.668 296.950,345.399 296.400 C 345.129 295.850,344.785 294.410,344.634 293.200 C 344.483 291.990,344.014 289.650,343.591 288.000 C 343.168 286.350,342.549 283.549,342.214 281.776 C 341.053 275.620,337.170 266.074,334.717 263.348 C 334.296 262.880,333.647 261.938,333.276 261.256 C 331.257 257.549,323.816 249.964,319.200 246.909 C 315.046 244.159,304.613 238.800,303.414 238.800 C 303.268 238.800,302.165 238.350,300.963 237.800 C 299.760 237.250,298.682 236.800,298.568 236.800 C 298.453 236.800,296.613 236.064,294.480 235.164 C 290.838 233.628,289.087 232.848,284.200 230.588 C 281.445 229.314,271.864 225.600,271.332 225.600 C 271.093 225.600,270.689 225.348,270.433 225.039 C 270.177 224.731,269.485 224.358,268.897 224.210 C 267.835 223.943,264.323 222.434,262.400 221.417 C 260.442 220.382,252.980 217.639,251.800 217.520 L 250.600 217.400 250.092 225.000 C 249.502 233.849,248.305 241.808,246.954 245.867 C 246.429 247.444,246.000 249.110,246.000 249.569 C 246.000 250.027,245.640 251.075,245.200 251.896 C 244.760 252.716,244.400 253.724,244.400 254.136 C 244.400 254.547,243.939 256.439,243.376 258.341 C 242.813 260.244,242.155 262.520,241.915 263.400 C 241.674 264.280,240.969 266.620,240.348 268.600 C 237.110 278.921,235.454 284.444,234.831 287.000 C 234.115 289.941,232.767 294.515,232.426 295.161 C 232.241 295.512,231.870 296.880,231.601 298.200 C 231.333 299.520,230.973 300.780,230.801 301.000 C 230.496 301.391,229.509 304.593,228.210 309.400 C 227.853 310.720,227.275 312.700,226.925 313.800 C 226.576 314.900,226.064 316.790,225.789 318.000 C 223.373 328.621,221.809 328.775,220.636 318.509 C 220.239 315.039,219.664 311.521,219.357 310.692 C 219.051 309.862,218.796 308.422,218.792 307.492 C 218.787 306.561,218.532 304.720,218.226 303.400 C 216.715 296.898,215.584 292.340,214.852 289.800 C 212.866 282.916,212.505 281.733,212.066 280.674 C 211.810 280.055,211.600 279.474,211.600 279.384 C 211.600 279.294,211.060 278.041,210.400 276.600 C 209.740 275.159,209.200 273.849,209.200 273.689 C 209.200 273.529,208.590 272.539,207.844 271.490 C 206.692 269.870,206.535 269.389,206.797 268.292 C 207.382 265.842,210.553 260.195,212.499 258.134 C 215.762 254.682,214.796 252.011,207.754 245.006 C 204.789 242.057,204.750 241.627,207.293 239.853 C 208.452 239.044,210.694 237.441,212.277 236.291 C 213.859 235.141,216.019 233.584,217.077 232.832 C 221.416 229.745,226.312 225.960,228.072 224.332 C 229.102 223.379,230.812 221.970,231.872 221.201 C 232.932 220.431,235.465 218.145,237.500 216.120 C 241.589 212.052,241.590 212.048,240.625 207.882 C 238.593 199.118,238.285 194.077,239.687 192.523 C 240.045 192.125,240.603 191.080,240.927 190.200 C 241.251 189.320,241.912 187.610,242.395 186.400 C 242.879 185.190,243.632 183.120,244.069 181.800 C 244.506 180.480,245.113 178.860,245.418 178.200 C 245.723 177.540,246.082 176.460,246.215 175.800 C 246.349 175.140,246.817 173.340,247.257 171.800 C 249.591 163.621,250.224 162.400,252.131 162.400 C 254.442 162.400,260.021 151.024,261.254 143.800 C 262.488 136.568,261.833 128.966,259.710 125.881 C 258.576 124.233,258.386 121.904,259.142 118.929 C 259.356 118.088,259.647 115.780,259.788 113.800 C 259.929 111.820,260.324 108.130,260.667 105.600 C 263.449 85.022,258.195 68.295,245.155 56.223 C 242.421 53.691,236.137 48.400,235.865 48.400 C 235.764 48.400,234.538 47.708,233.141 46.862 C 231.743 46.017,228.980 44.562,227.000 43.631 C 225.020 42.699,223.130 41.770,222.800 41.566 C 222.470 41.362,222.020 41.133,221.800 41.058 C 221.379 40.914,220.584 40.626,215.400 38.740 C 213.640 38.100,211.030 37.397,209.600 37.179 C 208.170 36.960,205.920 36.529,204.600 36.221 C 201.753 35.556,192.634 35.224,188.400 35.632 M202.754 36.584 C 203.664 36.905,205.801 37.294,207.504 37.448 C 209.206 37.602,211.320 38.056,212.200 38.455 C 213.080 38.855,214.178 39.186,214.640 39.191 C 215.103 39.196,216.327 39.650,217.362 40.200 C 218.396 40.750,219.659 41.200,220.167 41.200 C 220.676 41.200,221.536 41.549,222.078 41.975 C 222.620 42.402,223.537 42.869,224.115 43.014 C 224.694 43.160,225.377 43.531,225.633 43.839 C 225.889 44.148,226.321 44.400,226.593 44.400 C 226.865 44.400,228.099 44.940,229.336 45.600 C 230.573 46.260,231.864 46.800,232.205 46.800 C 232.546 46.800,232.931 47.077,233.061 47.415 C 233.191 47.753,233.860 48.318,234.548 48.671 C 235.237 49.023,237.870 50.985,240.400 53.030 C 244.716 56.519,246.591 58.420,248.728 61.476 C 249.219 62.178,249.931 62.853,250.310 62.975 C 250.690 63.098,251.310 63.693,251.689 64.299 C 252.968 66.344,253.395 66.996,254.278 68.245 C 254.761 68.930,255.281 70.010,255.431 70.645 C 255.582 71.280,256.119 72.610,256.626 73.600 C 257.643 75.590,259.200 80.568,259.200 81.830 C 259.200 82.274,259.578 84.339,260.041 86.419 C 260.988 90.681,260.974 102.580,260.019 104.365 C 259.758 104.853,259.396 108.179,259.213 111.766 C 258.976 116.426,258.700 118.634,258.241 119.521 C 257.080 121.766,257.395 124.002,259.266 126.804 L 260.932 129.298 260.894 136.319 C 260.854 143.672,260.415 146.178,258.371 150.711 C 257.947 151.652,257.600 152.652,257.600 152.934 C 257.600 155.353,253.599 160.789,251.124 161.733 C 249.516 162.346,249.163 162.687,248.656 164.124 C 247.380 167.736,246.066 172.708,245.814 174.872 C 245.668 176.122,245.310 177.343,245.017 177.586 C 244.723 177.829,244.360 178.689,244.208 179.496 C 244.057 180.303,243.588 181.639,243.167 182.465 C 242.745 183.292,242.400 184.182,242.400 184.444 C 242.400 184.705,241.836 186.107,241.146 187.559 C 240.457 189.012,239.551 190.920,239.134 191.800 C 237.778 194.657,237.607 196.911,238.443 200.906 C 238.859 202.894,239.200 205.102,239.200 205.812 C 239.200 206.522,239.470 207.749,239.800 208.538 C 240.815 210.967,240.591 212.134,238.800 213.752 C 237.920 214.547,237.200 215.301,237.200 215.428 C 237.200 215.732,236.123 216.800,235.816 216.800 C 235.684 216.800,234.913 217.520,234.104 218.400 C 233.295 219.280,232.407 220.000,232.131 220.000 C 231.854 220.000,231.435 220.360,231.200 220.800 C 230.965 221.240,230.530 221.600,230.234 221.600 C 229.939 221.600,228.772 222.483,227.641 223.561 C 226.510 224.640,225.093 225.895,224.492 226.351 C 223.892 226.807,222.500 227.863,221.400 228.698 C 220.300 229.533,218.865 230.558,218.210 230.976 C 217.556 231.394,216.836 231.889,216.610 232.077 C 213.968 234.275,210.868 236.546,210.126 236.828 C 209.617 237.022,209.200 237.351,209.200 237.561 C 209.200 237.770,208.212 238.506,207.005 239.197 C 203.467 241.221,203.396 242.854,206.752 245.015 C 207.765 245.667,208.810 246.650,209.073 247.200 C 209.337 247.750,210.217 248.920,211.029 249.800 C 214.383 253.435,214.420 255.218,211.209 258.429 C 209.983 259.655,209.200 260.790,209.200 261.341 C 209.200 261.838,208.750 262.855,208.200 263.600 C 207.650 264.345,207.196 265.145,207.191 265.378 C 207.186 265.610,206.830 266.250,206.400 266.800 C 205.066 268.506,205.564 270.717,207.741 272.750 C 208.301 273.273,208.877 274.263,209.022 274.950 C 209.168 275.638,209.627 276.761,210.043 277.447 C 210.459 278.133,210.801 279.033,210.802 279.447 C 210.804 279.861,211.076 280.720,211.407 281.355 C 212.000 282.492,212.875 285.490,214.455 291.800 C 214.896 293.560,215.514 295.478,215.828 296.062 C 216.143 296.646,216.404 297.816,216.409 298.662 C 216.414 299.508,216.759 300.952,217.177 301.872 C 217.635 302.882,218.047 305.018,218.218 307.272 C 218.374 309.322,218.674 311.331,218.884 311.737 C 219.095 312.142,219.432 314.122,219.632 316.137 C 220.759 327.442,220.803 327.600,222.883 327.600 C 223.939 327.600,225.322 324.140,226.235 319.217 C 226.539 317.576,227.049 315.684,227.367 315.012 C 227.686 314.340,228.078 312.803,228.238 311.595 C 228.399 310.388,228.949 308.500,229.461 307.400 C 229.973 306.300,230.400 304.950,230.409 304.400 C 230.418 303.850,230.682 303.061,230.995 302.647 C 231.309 302.233,231.765 300.883,232.010 299.647 C 232.255 298.411,232.691 296.860,232.980 296.200 C 233.269 295.540,233.632 294.286,233.787 293.414 C 233.942 292.541,234.306 291.369,234.596 290.809 C 234.885 290.248,235.250 288.892,235.406 287.795 C 235.561 286.698,236.003 285.070,236.387 284.178 C 236.771 283.287,237.219 281.671,237.381 280.588 C 237.543 279.505,237.995 277.985,238.384 277.209 C 238.773 276.434,239.214 275.127,239.363 274.306 C 239.512 273.484,239.983 272.044,240.408 271.106 C 240.834 270.167,241.186 268.983,241.191 268.474 C 241.196 267.964,241.419 267.154,241.687 266.674 C 241.954 266.193,242.568 264.270,243.050 262.400 C 243.533 260.530,244.212 258.010,244.559 256.800 C 244.906 255.590,245.193 254.182,245.195 253.671 C 245.198 253.161,245.459 252.484,245.776 252.167 C 246.093 251.850,246.464 250.738,246.600 249.695 C 246.736 248.653,247.182 247.080,247.591 246.200 C 248.000 245.320,248.465 243.526,248.624 242.212 C 248.784 240.899,249.146 239.270,249.430 238.591 C 249.734 237.861,250.147 233.641,250.441 228.256 C 251.038 217.306,251.156 217.137,256.339 219.841 C 256.922 220.146,257.656 220.396,257.968 220.398 C 258.536 220.400,262.478 222.137,265.279 223.618 C 266.093 224.048,267.100 224.400,267.518 224.400 C 267.936 224.400,268.698 224.765,269.213 225.211 C 269.727 225.657,270.609 226.114,271.174 226.226 C 271.738 226.339,272.866 226.784,273.679 227.215 C 274.493 227.647,275.393 228.006,275.679 228.013 C 275.966 228.019,277.100 228.468,278.200 229.009 C 279.300 229.550,280.671 229.994,281.246 229.996 C 281.821 229.998,282.721 230.335,283.246 230.745 C 283.771 231.155,284.650 231.628,285.200 231.796 C 285.750 231.964,286.936 232.529,287.835 233.051 C 288.734 233.573,289.769 234.000,290.135 234.000 C 290.501 234.000,290.800 234.177,290.800 234.392 C 290.800 234.608,291.295 234.905,291.900 235.053 C 292.505 235.200,293.903 235.730,295.006 236.229 C 296.110 236.729,297.544 237.271,298.194 237.434 C 298.844 237.597,299.922 238.048,300.588 238.436 C 301.255 238.824,302.475 239.265,303.300 239.415 C 304.125 239.566,304.800 239.810,304.800 239.958 C 304.800 240.198,306.005 240.808,310.800 242.997 C 311.570 243.348,313.100 244.157,314.200 244.795 C 315.300 245.433,316.470 246.088,316.800 246.251 C 318.375 247.031,321.959 249.694,322.624 250.580 C 323.034 251.126,323.872 251.781,324.485 252.035 C 325.098 252.289,325.600 252.706,325.600 252.962 C 325.600 253.217,326.785 254.681,328.232 256.213 C 329.680 257.746,331.159 259.495,331.519 260.100 C 331.878 260.705,332.314 261.200,332.486 261.200 C 332.659 261.200,332.800 261.387,332.800 261.615 C 332.800 261.843,333.700 263.311,334.800 264.878 C 335.900 266.444,336.800 267.991,336.800 268.316 C 336.800 268.640,337.138 269.467,337.551 270.153 C 337.965 270.839,338.528 272.120,338.804 273.000 C 339.079 273.880,339.466 274.805,339.664 275.055 C 339.861 275.305,340.270 276.655,340.573 278.055 C 340.875 279.455,341.410 281.673,341.761 282.984 C 342.113 284.295,342.400 285.876,342.400 286.497 C 342.400 287.118,342.688 288.295,343.041 289.113 C 343.394 289.931,343.931 292.040,344.236 293.800 C 344.831 297.244,345.569 301.065,346.860 307.400 C 347.309 309.600,347.837 312.317,348.034 313.438 C 348.231 314.559,348.648 316.203,348.962 317.093 C 349.276 317.982,349.746 320.125,350.006 321.855 C 350.267 323.585,350.642 325.313,350.840 325.695 C 351.310 326.602,351.305 331.412,350.833 332.305 C 350.632 332.687,350.239 333.610,349.962 334.356 C 349.684 335.102,348.858 336.362,348.127 337.156 C 347.396 337.950,346.710 338.874,346.601 339.208 C 346.493 339.542,345.774 340.155,345.002 340.571 C 344.231 340.986,343.600 341.478,343.600 341.663 C 343.600 341.848,343.392 342.000,343.138 342.000 C 342.884 342.000,342.119 342.424,341.438 342.942 C 340.757 343.461,339.750 344.022,339.200 344.190 C 338.650 344.357,337.930 344.730,337.600 345.018 C 336.758 345.752,331.926 347.999,331.189 348.000 C 330.853 348.000,330.223 348.240,329.789 348.534 C 329.048 349.036,323.207 350.919,319.200 351.948 C 312.440 353.684,310.955 354.105,310.600 354.390 C 310.380 354.566,308.830 354.890,307.155 355.110 C 305.479 355.331,303.499 355.794,302.755 356.141 C 302.010 356.487,299.518 356.959,297.217 357.190 C 294.916 357.420,292.486 357.794,291.817 358.021 C 291.148 358.247,287.270 358.796,283.200 359.239 C 279.130 359.683,273.730 360.295,271.200 360.600 C 268.670 360.904,265.430 361.170,264.000 361.191 C 262.570 361.212,260.320 361.492,259.000 361.813 C 257.647 362.143,252.674 362.574,247.600 362.802 C 242.650 363.024,237.070 363.430,235.200 363.703 C 230.168 364.439,165.577 364.415,163.600 363.677 C 162.711 363.345,158.696 363.027,152.600 362.807 C 145.865 362.563,142.403 362.273,141.000 361.834 C 139.900 361.490,137.740 361.198,136.200 361.185 C 134.660 361.172,131.330 360.907,128.800 360.597 C 126.270 360.286,120.780 359.664,116.600 359.213 C 112.420 358.763,108.636 358.238,108.192 358.048 C 107.747 357.857,105.407 357.481,102.992 357.211 C 100.576 356.942,98.000 356.454,97.266 356.126 C 96.532 355.798,94.770 355.366,93.351 355.165 C 91.932 354.964,90.372 354.548,89.885 354.242 C 89.398 353.935,87.920 353.560,86.600 353.408 C 85.280 353.256,83.480 352.819,82.600 352.438 C 81.720 352.056,79.830 351.504,78.400 351.211 C 76.970 350.919,75.314 350.437,74.720 350.140 C 74.126 349.843,73.313 349.600,72.914 349.600 C 72.515 349.600,71.516 349.240,70.696 348.800 C 69.875 348.360,68.995 348.000,68.740 348.000 C 68.072 348.000,63.312 345.705,63.028 345.246 C 62.897 345.033,62.116 344.641,61.294 344.376 C 60.472 344.111,59.480 343.560,59.089 343.152 C 58.698 342.744,57.933 342.298,57.389 342.161 C 56.845 342.025,56.400 341.781,56.400 341.620 C 56.400 341.458,55.770 340.987,55.000 340.572 C 54.230 340.157,53.600 339.571,53.600 339.269 C 53.600 338.967,52.954 338.074,52.164 337.284 C 50.134 335.254,48.667 331.069,48.931 328.059 C 49.151 325.556,50.259 320.056,51.562 315.000 C 51.789 314.120,52.419 311.330,52.963 308.800 C 53.857 304.643,54.333 302.138,55.660 294.600 C 55.892 293.280,56.349 291.390,56.675 290.400 C 57.000 289.410,57.439 287.353,57.649 285.828 C 57.859 284.304,58.272 282.504,58.568 281.828 C 58.864 281.153,59.329 279.520,59.602 278.200 C 59.876 276.880,60.347 275.445,60.650 275.011 C 60.952 274.577,61.200 273.997,61.200 273.723 C 61.200 273.448,61.650 272.240,62.200 271.037 C 62.750 269.835,63.200 268.584,63.200 268.256 C 63.200 267.929,63.605 267.151,64.100 266.528 C 64.595 265.904,65.180 265.107,65.400 264.757 C 66.788 262.546,68.163 260.705,69.998 258.600 C 71.149 257.280,72.527 255.699,73.060 255.087 C 73.594 254.474,74.199 253.529,74.405 252.987 C 74.611 252.444,75.048 252.000,75.375 252.000 C 75.702 252.000,77.102 250.987,78.485 249.750 C 79.868 248.512,81.585 247.219,82.300 246.876 C 83.015 246.533,83.600 246.119,83.600 245.957 C 83.600 245.509,96.748 239.201,97.689 239.199 C 97.970 239.198,98.789 238.838,99.510 238.399 C 100.230 237.959,101.040 237.598,101.310 237.596 C 101.579 237.594,102.700 237.150,103.800 236.609 C 104.900 236.068,105.963 235.619,106.161 235.613 C 106.605 235.597,110.464 233.875,112.479 232.794 C 113.293 232.357,114.211 232.000,114.520 232.000 C 114.828 232.000,115.927 231.550,116.962 231.000 C 117.996 230.450,119.130 230.000,119.481 230.000 C 119.833 230.000,121.128 229.530,122.360 228.955 C 123.592 228.380,125.410 227.559,126.400 227.130 C 127.390 226.701,129.055 225.911,130.100 225.375 C 131.145 224.839,132.280 224.400,132.621 224.400 C 132.962 224.400,133.907 224.054,134.721 223.631 C 137.761 222.049,140.487 220.800,140.898 220.800 C 141.132 220.800,142.305 220.336,143.505 219.768 C 146.253 218.468,148.098 218.143,148.657 218.861 C 149.090 219.416,150.000 230.187,150.003 234.800 C 150.004 236.255,150.253 237.876,150.569 238.481 C 150.879 239.075,151.332 240.847,151.576 242.419 C 151.820 243.991,152.268 245.758,152.572 246.346 C 152.877 246.935,153.323 248.482,153.563 249.785 C 153.804 251.088,154.147 252.254,154.325 252.377 C 154.504 252.500,154.869 253.680,155.138 255.000 C 156.005 259.264,157.639 264.961,158.430 266.479 C 158.853 267.293,159.200 268.488,159.200 269.136 C 159.200 269.783,159.556 271.097,159.991 272.056 C 160.426 273.015,160.786 274.163,160.791 274.606 C 160.796 275.049,161.161 276.085,161.602 276.908 C 162.043 277.731,162.567 279.555,162.766 280.961 C 162.965 282.368,163.397 283.942,163.726 284.459 C 164.055 284.977,164.449 286.390,164.603 287.600 C 164.756 288.810,165.131 290.340,165.436 291.000 C 165.741 291.660,166.330 293.460,166.745 295.000 C 168.471 301.405,168.828 302.638,169.175 303.400 C 169.375 303.840,169.847 305.235,170.224 306.500 C 170.601 307.765,171.044 308.800,171.209 308.800 C 171.373 308.800,171.636 309.835,171.793 311.100 C 171.950 312.365,172.347 314.030,172.676 314.800 C 173.005 315.570,173.513 317.460,173.806 319.000 C 174.357 321.901,176.058 327.018,176.677 327.637 C 177.962 328.922,179.423 325.854,179.932 320.800 C 180.401 316.151,180.756 313.839,181.622 309.800 C 181.811 308.920,181.973 307.352,181.983 306.315 C 181.992 305.278,182.360 303.516,182.800 302.400 C 183.240 301.284,183.600 299.607,183.600 298.674 C 183.600 297.741,183.875 296.585,184.212 296.104 C 184.549 295.623,185.177 293.579,185.608 291.560 C 186.040 289.542,186.546 287.690,186.734 287.445 C 186.922 287.200,187.303 286.100,187.581 285.000 C 188.145 282.770,189.529 279.025,190.244 277.800 C 190.500 277.360,190.829 276.321,190.975 275.491 C 191.120 274.662,191.744 273.402,192.361 272.691 C 194.919 269.746,194.941 269.048,192.600 264.885 C 191.610 263.125,190.800 261.455,190.800 261.173 C 190.800 260.892,189.931 259.658,188.869 258.431 C 185.671 254.737,185.757 253.389,189.432 249.583 C 190.184 248.804,190.800 247.994,190.800 247.783 C 190.801 247.125,192.543 245.348,193.844 244.678 C 196.832 243.139,196.497 241.139,192.913 239.116 C 191.751 238.460,190.800 237.782,190.800 237.609 C 190.800 237.436,189.640 236.538,188.223 235.615 C 186.805 234.691,185.590 233.815,185.523 233.668 C 185.455 233.520,184.500 232.775,183.400 232.012 C 182.300 231.248,181.051 230.303,180.625 229.912 C 180.198 229.520,179.716 229.200,179.553 229.200 C 179.390 229.200,179.019 228.975,178.729 228.700 C 178.438 228.425,177.480 227.663,176.600 227.007 C 175.720 226.351,174.001 224.911,172.781 223.807 C 171.561 222.703,169.798 221.350,168.865 220.800 C 167.931 220.250,166.229 218.825,165.083 217.633 C 163.938 216.441,162.213 214.698,161.251 213.759 C 159.498 212.049,159.050 209.034,160.423 208.186 C 160.630 208.058,160.800 207.332,160.800 206.572 C 160.800 205.813,161.168 203.537,161.619 201.516 C 162.488 197.613,162.403 194.364,161.382 192.400 C 160.872 191.421,158.892 187.181,157.272 183.600 C 156.824 182.610,156.248 180.990,155.991 180.000 C 155.735 179.010,155.294 177.930,155.011 177.600 C 154.727 177.270,154.367 175.920,154.209 174.600 C 154.051 173.280,153.675 171.606,153.373 170.880 C 153.071 170.154,152.539 168.181,152.191 166.496 C 151.492 163.110,151.093 162.400,149.892 162.400 C 148.231 162.400,145.624 159.669,144.022 156.251 C 141.604 151.089,141.269 150.274,140.786 148.383 C 139.293 142.535,139.153 141.292,139.275 134.979 L 139.400 128.558 140.900 126.807 C 142.605 124.816,142.927 122.128,141.833 119.013 C 141.521 118.126,141.063 114.646,140.815 111.279 C 140.567 107.913,140.211 104.756,140.024 104.264 C 139.255 102.241,139.089 91.539,139.781 88.600 C 140.143 87.060,140.604 84.540,140.803 83.000 C 141.225 79.748,142.620 75.041,143.588 73.600 C 143.958 73.050,144.510 71.970,144.816 71.200 C 146.158 67.815,150.247 63.600,152.189 63.600 C 152.857 63.600,154.400 61.723,154.400 60.909 C 154.400 60.589,154.760 59.869,155.200 59.309 C 155.640 58.750,156.000 58.068,156.000 57.794 C 156.000 57.520,156.800 56.240,157.777 54.948 C 158.754 53.657,160.059 51.927,160.677 51.104 C 163.460 47.395,165.023 45.744,166.479 44.972 C 167.073 44.658,168.423 43.817,169.479 43.103 C 171.896 41.471,174.958 39.874,176.901 39.233 C 177.726 38.961,178.400 38.594,178.400 38.418 C 178.400 38.242,179.862 37.870,181.648 37.593 C 183.434 37.315,185.639 36.855,186.548 36.570 C 188.971 35.812,200.594 35.822,202.754 36.584 " stroke="none" fill="#74747c" fill-rule="evenodd"></path><path id="path4" d="M188.700 35.482 C 189.195 35.578,190.005 35.578,190.500 35.482 C 190.995 35.387,190.590 35.309,189.600 35.309 C 188.610 35.309,188.205 35.387,188.700 35.482 M196.313 35.495 C 197.476 35.576,199.276 35.576,200.313 35.493 C 201.351 35.411,200.400 35.345,198.200 35.346 C 196.000 35.347,195.151 35.414,196.313 35.495 M237.167 49.345 C 237.700 50.001,239.200 50.993,239.200 50.689 C 239.200 50.613,238.615 50.122,237.900 49.599 C 237.096 49.010,236.816 48.913,237.167 49.345 M241.200 52.525 C 241.200 52.594,241.785 53.179,242.500 53.825 L 243.800 55.000 242.625 53.700 C 241.530 52.488,241.200 52.216,241.200 52.525 M245.800 56.800 C 246.883 57.900,247.860 58.800,247.970 58.800 C 248.080 58.800,247.283 57.900,246.200 56.800 C 245.117 55.700,244.140 54.800,244.030 54.800 C 243.920 54.800,244.717 55.700,245.800 56.800 M154.678 58.205 C 154.312 58.972,154.095 59.600,154.196 59.600 C 154.470 59.600,155.684 57.151,155.501 56.968 C 155.414 56.881,155.044 57.438,154.678 58.205 M249.216 60.276 C 249.235 60.645,252.400 64.224,252.400 63.876 C 252.400 63.751,251.680 62.817,250.800 61.800 C 249.920 60.783,249.207 60.097,249.216 60.276 M256.867 72.020 C 257.101 72.692,257.367 73.167,257.457 73.076 C 257.656 72.878,256.901 70.800,256.631 70.800 C 256.527 70.800,256.633 71.349,256.867 72.020 M259.256 78.400 C 259.256 78.730,259.411 79.360,259.600 79.800 C 259.817 80.304,259.944 80.378,259.944 80.000 C 259.944 79.670,259.789 79.040,259.600 78.600 C 259.383 78.096,259.256 78.022,259.256 78.400 M261.355 94.200 C 261.356 97.060,261.420 98.178,261.497 96.683 C 261.574 95.189,261.574 92.849,261.496 91.483 C 261.418 90.118,261.355 91.340,261.355 94.200 M138.909 102.000 C 138.909 102.990,138.987 103.395,139.082 102.900 C 139.178 102.405,139.178 101.595,139.082 101.100 C 138.987 100.605,138.909 101.010,138.909 102.000 M260.493 107.200 C 260.493 107.970,260.575 108.285,260.676 107.900 C 260.776 107.515,260.776 106.885,260.676 106.500 C 260.575 106.115,260.493 106.430,260.493 107.200 M139.301 107.800 C 139.305 108.680,139.387 108.993,139.483 108.495 C 139.579 107.998,139.575 107.278,139.475 106.895 C 139.375 106.513,139.296 106.920,139.301 107.800 M140.093 114.400 C 140.093 115.170,140.175 115.485,140.276 115.100 C 140.376 114.715,140.376 114.085,140.276 113.700 C 140.175 113.315,140.093 113.630,140.093 114.400 M141.264 122.267 C 141.229 122.964,141.096 123.864,140.970 124.267 C 140.753 124.959,140.765 124.960,141.194 124.291 C 141.445 123.902,141.577 123.002,141.489 122.291 L 141.328 121.000 141.264 122.267 M261.709 131.600 C 261.709 132.590,261.787 132.995,261.882 132.500 C 261.978 132.005,261.978 131.195,261.882 130.700 C 261.787 130.205,261.709 130.610,261.709 131.600 M138.101 131.800 C 138.105 132.680,138.187 132.993,138.283 132.495 C 138.379 131.998,138.375 131.278,138.275 130.895 C 138.175 130.513,138.096 130.920,138.101 131.800 M138.124 137.400 C 138.126 138.720,138.201 139.212,138.290 138.493 C 138.379 137.774,138.377 136.694,138.286 136.093 C 138.195 135.492,138.122 136.080,138.124 137.400 M261.709 140.400 C 261.709 141.390,261.787 141.795,261.882 141.300 C 261.978 140.805,261.978 139.995,261.882 139.500 C 261.787 139.005,261.709 139.410,261.709 140.400 M254.226 160.700 C 253.362 161.805,253.293 161.990,253.963 161.404 C 254.765 160.704,255.823 159.200,255.514 159.200 C 255.451 159.200,254.872 159.875,254.226 160.700 M150.449 164.409 C 151.054 166.200,151.395 166.548,151.028 165.000 C 150.871 164.340,150.571 163.624,150.361 163.409 C 150.150 163.194,150.190 163.644,150.449 164.409 M241.265 189.017 C 240.595 190.488,240.723 190.802,241.447 189.465 C 241.786 188.840,241.988 188.254,241.896 188.163 C 241.805 188.071,241.521 188.456,241.265 189.017 M161.314 197.400 C 161.317 198.500,161.395 198.903,161.487 198.295 C 161.579 197.686,161.577 196.786,161.482 196.295 C 161.387 195.803,161.311 196.300,161.314 197.400 M240.087 205.200 C 240.083 205.750,240.224 206.650,240.400 207.200 C 240.831 208.544,240.831 207.092,240.400 205.400 C 240.126 204.322,240.094 204.302,240.087 205.200 M159.693 206.000 C 159.693 206.770,159.775 207.085,159.876 206.700 C 159.976 206.315,159.976 205.685,159.876 205.300 C 159.775 204.915,159.693 205.230,159.693 206.000 M241.168 211.300 C 241.049 212.160,241.110 212.650,241.312 212.448 C 241.505 212.255,241.598 211.581,241.519 210.949 C 241.387 209.891,241.359 209.919,241.168 211.300 M239.215 214.416 C 238.453 215.067,238.015 215.600,238.240 215.600 C 238.466 215.600,239.168 215.060,239.800 214.400 C 241.255 212.881,241.003 212.888,239.215 214.416 M250.663 217.099 C 250.561 217.264,251.123 217.447,251.911 217.505 C 253.524 217.624,253.529 217.439,251.925 217.055 C 251.333 216.913,250.766 216.933,250.663 217.099 M149.714 219.800 C 149.717 220.900,149.795 221.303,149.887 220.695 C 149.979 220.086,149.977 219.186,149.882 218.695 C 149.787 218.203,149.711 218.700,149.714 219.800 M250.120 220.800 C 250.120 222.010,250.195 222.505,250.287 221.900 C 250.378 221.295,250.378 220.305,250.287 219.700 C 250.195 219.095,250.120 219.590,250.120 220.800 M169.400 222.257 C 171.437 224.064,172.187 224.591,171.402 223.663 C 170.966 223.148,170.247 222.541,169.804 222.314 C 169.362 222.087,169.180 222.062,169.400 222.257 M150.114 224.600 C 150.117 225.700,150.195 226.103,150.287 225.495 C 150.379 224.886,150.377 223.986,150.282 223.495 C 150.187 223.003,150.111 223.500,150.114 224.600 M225.970 226.300 L 225.000 227.400 226.200 226.400 C 226.860 225.850,227.475 225.355,227.567 225.300 C 227.658 225.245,227.555 225.200,227.336 225.200 C 227.118 225.200,226.503 225.695,225.970 226.300 M249.693 226.400 C 249.693 227.170,249.775 227.485,249.876 227.100 C 249.976 226.715,249.976 226.085,249.876 225.700 C 249.775 225.315,249.693 225.630,249.693 226.400 M150.520 230.800 C 150.520 232.010,150.595 232.505,150.687 231.900 C 150.778 231.295,150.778 230.305,150.687 229.700 C 150.595 229.095,150.520 229.590,150.520 230.800 M249.320 232.400 C 249.320 233.610,249.395 234.105,249.487 233.500 C 249.578 232.895,249.578 231.905,249.487 231.300 C 249.395 230.695,249.320 231.190,249.320 232.400 M180.400 230.925 C 180.400 231.024,181.061 231.609,181.868 232.225 C 182.676 232.841,183.211 233.141,183.056 232.891 C 182.740 232.379,180.400 230.647,180.400 230.925 M102.800 236.000 C 102.030 236.422,101.580 236.766,101.800 236.766 C 102.020 236.766,102.830 236.422,103.600 236.000 C 104.370 235.578,104.820 235.234,104.600 235.234 C 104.380 235.234,103.570 235.578,102.800 236.000 M296.000 235.800 C 296.550 236.114,297.180 236.372,297.400 236.372 C 297.620 236.372,297.350 236.114,296.800 235.800 C 296.250 235.486,295.620 235.228,295.400 235.228 C 295.180 235.228,295.450 235.486,296.000 235.800 M311.233 242.128 C 311.869 242.615,314.400 243.936,314.400 243.781 C 314.400 243.513,311.882 242.003,311.433 242.001 C 311.232 242.001,311.142 242.057,311.233 242.128 M210.330 247.900 C 210.761 248.505,211.528 249.360,212.034 249.800 C 212.540 250.240,212.251 249.745,211.392 248.700 C 209.673 246.608,209.103 246.179,210.330 247.900 M188.378 249.100 L 187.000 250.600 188.500 249.222 C 189.896 247.938,190.184 247.600,189.878 247.600 C 189.812 247.600,189.137 248.275,188.378 249.100 M76.981 249.700 L 75.400 251.400 77.100 249.819 C 78.681 248.348,78.984 248.000,78.681 248.000 C 78.616 248.000,77.851 248.765,76.981 249.700 M71.634 254.953 L 70.669 256.200 71.813 255.112 C 72.443 254.514,72.877 253.953,72.779 253.865 C 72.680 253.777,72.165 254.267,71.634 254.953 M329.609 256.700 C 332.673 260.016,333.098 260.405,331.684 258.600 C 329.811 256.210,328.133 254.400,327.789 254.400 C 327.621 254.400,328.440 255.435,329.609 256.700 M187.183 258.100 C 188.841 259.866,189.200 260.184,189.200 259.883 C 189.200 259.819,188.345 258.964,187.300 257.983 L 185.400 256.200 187.183 258.100 M212.561 258.100 C 211.678 259.035,210.709 260.160,210.407 260.600 C 210.105 261.040,210.369 260.860,210.994 260.200 C 213.859 257.173,214.543 256.400,214.362 256.400 C 214.254 256.400,213.444 257.165,212.561 258.100 M66.594 261.102 C 64.814 263.612,64.065 264.830,64.689 264.200 C 65.484 263.397,68.467 259.134,68.330 258.996 C 68.252 258.919,67.471 259.866,66.594 261.102 M333.600 261.864 C 333.600 262.082,334.095 262.697,334.700 263.230 L 335.800 264.200 334.800 263.000 C 334.250 262.340,333.755 261.725,333.700 261.633 C 333.645 261.542,333.600 261.645,333.600 261.864 M192.581 270.437 C 192.229 271.118,192.012 271.745,192.099 271.832 C 192.186 271.919,192.556 271.362,192.922 270.595 C 193.744 268.870,193.459 268.738,192.581 270.437 M57.829 280.629 C 57.681 281.215,57.638 281.772,57.732 281.866 C 57.827 281.960,58.024 281.558,58.171 280.971 C 58.319 280.385,58.362 279.828,58.268 279.734 C 58.173 279.640,57.976 280.042,57.829 280.629 M183.849 293.415 C 183.712 293.773,183.615 294.366,183.634 294.733 C 183.653 295.100,183.827 294.869,184.021 294.220 C 184.398 292.958,184.265 292.333,183.849 293.415 M180.752 309.513 C 180.621 310.307,180.679 310.681,180.901 310.459 C 181.103 310.257,181.201 309.667,181.119 309.146 C 180.993 308.345,180.937 308.402,180.752 309.513 M220.114 313.800 C 220.117 314.900,220.195 315.303,220.287 314.695 C 220.379 314.086,220.377 313.186,220.282 312.695 C 220.187 312.203,220.111 312.700,220.114 313.800 M350.456 319.600 C 350.456 319.930,350.611 320.560,350.800 321.000 C 351.017 321.504,351.144 321.578,351.144 321.200 C 351.144 320.870,350.989 320.240,350.800 319.800 C 350.583 319.296,350.456 319.222,350.456 319.600 M49.029 321.429 C 48.881 322.015,48.838 322.572,48.932 322.666 C 49.027 322.760,49.224 322.358,49.371 321.771 C 49.519 321.185,49.562 320.628,49.468 320.534 C 49.373 320.440,49.176 320.842,49.029 321.429 M178.460 323.126 C 178.318 325.317,177.052 326.290,176.412 324.700 C 176.168 324.091,176.043 324.010,176.025 324.451 C 176.011 324.809,176.280 325.334,176.622 325.618 C 177.560 326.396,178.923 324.907,178.692 323.357 C 178.555 322.438,178.508 322.391,178.460 323.126 M221.241 323.438 C 221.188 325.045,222.489 326.356,223.392 325.606 C 223.727 325.329,224.000 324.910,224.000 324.675 C 224.000 324.439,223.775 324.548,223.500 324.916 C 222.818 325.829,222.000 325.241,221.601 323.552 L 221.282 322.200 221.241 323.438 M351.301 323.800 C 351.305 324.680,351.387 324.993,351.483 324.495 C 351.579 323.998,351.575 323.278,351.475 322.895 C 351.375 322.513,351.296 322.920,351.301 323.800 M50.000 336.469 C 50.000 336.866,51.606 338.527,51.801 338.332 C 51.909 338.225,51.548 337.714,50.998 337.199 C 50.449 336.683,50.000 336.354,50.000 336.469 M312.200 354.586 C 310.655 355.293,311.374 355.303,313.200 354.600 C 313.970 354.303,314.330 354.055,314.000 354.048 C 313.670 354.042,312.860 354.283,312.200 354.586 M279.300 360.676 C 279.685 360.776,280.315 360.776,280.700 360.676 C 281.085 360.575,280.770 360.493,280.000 360.493 C 279.230 360.493,278.915 360.575,279.300 360.676 M122.705 361.083 C 123.202 361.179,123.922 361.175,124.305 361.075 C 124.687 360.975,124.280 360.896,123.400 360.901 C 122.520 360.905,122.207 360.987,122.705 361.083 M275.300 361.076 C 275.685 361.176,276.315 361.176,276.700 361.076 C 277.085 360.975,276.770 360.893,276.000 360.893 C 275.230 360.893,274.915 360.975,275.300 361.076 M129.300 361.876 C 129.685 361.976,130.315 361.976,130.700 361.876 C 131.085 361.775,130.770 361.693,130.000 361.693 C 129.230 361.693,128.915 361.775,129.300 361.876 M267.900 361.882 C 268.395 361.978,269.205 361.978,269.700 361.882 C 270.195 361.787,269.790 361.709,268.800 361.709 C 267.810 361.709,267.405 361.787,267.900 361.882 M134.505 362.287 C 135.114 362.379,136.014 362.377,136.505 362.282 C 136.997 362.187,136.500 362.111,135.400 362.114 C 134.300 362.117,133.897 362.195,134.505 362.287 M263.705 362.287 C 264.314 362.379,265.214 362.377,265.705 362.282 C 266.197 362.187,265.700 362.111,264.600 362.114 C 263.500 362.117,263.097 362.195,263.705 362.287 M145.900 363.482 C 146.395 363.578,147.205 363.578,147.700 363.482 C 148.195 363.387,147.790 363.309,146.800 363.309 C 145.810 363.309,145.405 363.387,145.900 363.482 M153.107 363.890 C 153.826 363.979,154.906 363.977,155.507 363.886 C 156.108 363.795,155.520 363.722,154.200 363.724 C 152.880 363.726,152.388 363.801,153.107 363.890 M245.700 363.887 C 246.305 363.978,247.295 363.978,247.900 363.887 C 248.505 363.795,248.010 363.720,246.800 363.720 C 245.590 363.720,245.095 363.795,245.700 363.887 M158.707 364.290 C 159.426 364.379,160.506 364.377,161.107 364.286 C 161.708 364.195,161.120 364.122,159.800 364.124 C 158.480 364.126,157.988 364.201,158.707 364.290 M240.300 364.289 C 241.015 364.378,242.185 364.378,242.900 364.289 C 243.615 364.201,243.030 364.128,241.600 364.128 C 240.170 364.128,239.585 364.201,240.300 364.289 M163.300 364.676 C 163.685 364.776,164.315 364.776,164.700 364.676 C 165.085 364.575,164.770 364.493,164.000 364.493 C 163.230 364.493,162.915 364.575,163.300 364.676 M233.907 364.690 C 234.626 364.779,235.706 364.777,236.307 364.686 C 236.908 364.595,236.320 364.522,235.000 364.524 C 233.680 364.526,233.188 364.601,233.907 364.690 M173.911 365.093 C 174.851 365.178,176.291 365.177,177.111 365.091 C 177.930 365.005,177.160 364.936,175.400 364.937 C 173.640 364.939,172.970 365.009,173.911 365.093 M223.491 365.089 C 224.201 365.177,225.461 365.179,226.291 365.092 C 227.121 365.005,226.540 364.933,225.000 364.931 C 223.460 364.929,222.781 365.000,223.491 365.089 " stroke="none" fill="#7c747c" fill-rule="evenodd"></path></g></svg>